<?xml version="1.0" encoding="UTF-8" standalone="no"?>
<svg
   xmlns:dc="http://purl.org/dc/elements/1.1/"
   xmlns:cc="http://creativecommons.org/ns#"
   xmlns:rdf="http://www.w3.org/1999/02/22-rdf-syntax-ns#"
   xmlns:svg="http://www.w3.org/2000/svg"
   xmlns="http://www.w3.org/2000/svg"
   xmlns:sodipodi="http://sodipodi.sourceforge.net/DTD/sodipodi-0.dtd"
   xmlns:inkscape="http://www.inkscape.org/namespaces/inkscape"
   width="5120"
   height="1024"
   viewBox="0 0 1354.6667 270.93334"
   version="1.1"
   id="svg8"
   sodipodi:docname="ChemistryCupboard Logo With Text 2022.svg"
   inkscape:export-filename="C:\Users\Nicholas\Pictures\ChemistryCupboard Logos\Logo with Text\PNG\ChemistryCupboard Logo With Text 2022.png"
   inkscape:export-xdpi="96"
   inkscape:export-ydpi="96"
   inkscape:version="1.0.2 (e86c870879, 2021-01-15, custom)">
  <sodipodi:namedview
     pagecolor="#ffffff"
     bordercolor="#666666"
     borderopacity="1"
     objecttolerance="10"
     gridtolerance="10"
     guidetolerance="10"
     inkscape:pageopacity="0"
     inkscape:pageshadow="2"
     inkscape:window-width="2560"
     inkscape:window-height="1377"
     id="namedview1509"
     showgrid="false"
     inkscape:zoom="0.21640625"
     inkscape:cx="2560"
     inkscape:cy="512"
     inkscape:window-x="2552"
     inkscape:window-y="-8"
     inkscape:window-maximized="1"
     inkscape:current-layer="svg8" />
  <title
     id="title875">ChemistryCupboard Logo With Text</title>
  <defs
     id="defs2" />
  <metadata
     id="metadata5">
    <rdf:RDF>
      <cc:Work
         rdf:about="">
        <dc:format>image/svg+xml</dc:format>
        <dc:type
           rdf:resource="http://purl.org/dc/dcmitype/StillImage" />
        <dc:title>ChemistryCupboard Logo With Text</dc:title>
      </cc:Work>
    </rdf:RDF>
  </metadata>
  <g
     id="layer3"
     style="display:inline">
    <path
       id="rect1473"
       style="fill:#000000;fill-opacity:1;fill-rule:evenodd;stroke:#000000;stroke-width:0;stroke-linecap:round;stroke-linejoin:round;stroke-miterlimit:4;stroke-dasharray:none;stroke-opacity:1;paint-order:normal"
       d="m 86.555658,129.66063 -70.77759,53.31147 -0.38654,0.29094 -0.0129,0.01 c -0.0414,0.0319 -0.0828,0.0639 -0.12403,0.0961 -0.0455,0.0357 -0.0912,0.0719 -0.13642,0.108 -0.0452,0.0363 -0.0899,0.0724 -0.13488,0.10904 -0.045,0.0366 -0.0897,0.0736 -0.13436,0.11058 -0.0447,0.0369 -0.0894,0.0742 -0.13384,0.11162 -0.0445,0.0373 -0.0886,0.0749 -0.13281,0.11266 -0.0441,0.0378 -0.088,0.0755 -0.13177,0.11369 -0.0437,0.0381 -0.0873,0.0767 -0.13074,0.11524 -0.0436,0.0386 -0.0874,0.0773 -0.13074,0.11627 -0.0433,0.039 -0.0862,0.0785 -0.1292,0.11782 -0.0429,0.0394 -0.0856,0.0791 -0.12815,0.11886 -0.0427,0.0399 -0.0853,0.0796 -0.12764,0.11989 -0.0423,0.0401 -0.0846,0.0805 -0.12661,0.12092 -0.042,0.0406 -0.0839,0.0815 -0.12557,0.12247 -0.0418,0.0409 -0.0831,0.0822 -0.12454,0.12351 -0.0415,0.0413 -0.0829,0.0824 -0.12403,0.12402 -0.0411,0.0417 -0.0822,0.0835 -0.12299,0.12558 -0.0408,0.0421 -0.0815,0.0841 -0.12195,0.1266 -0.0404,0.0423 -0.0804,0.085 -0.12041,0.12764 -0.0401,0.0428 -0.0802,0.0855 -0.11989,0.12868 -0.0398,0.0431 -0.0794,0.0867 -0.11886,0.13022 -0.0395,0.0434 -0.0786,0.0869 -0.11782,0.13074 -0.0391,0.0437 -0.0781,0.0877 -0.11679,0.13178 -0.0387,0.0442 -0.0773,0.0887 -0.11575,0.13332 -0.0384,0.0445 -0.0766,0.089 -0.11472,0.13385 -0.038,0.0447 -0.0761,0.0897 -0.11369,0.13487 -0.0378,0.0452 -0.0752,0.0909 -0.11266,0.13643 -0.0373,0.0455 -0.0747,0.0911 -0.11162,0.13694 -0.037,0.0458 -0.0739,0.0918 -0.11059,0.13797 -0.0367,0.0462 -0.0727,0.0925 -0.10903,0.13901 -0.0363,0.0464 -0.0726,0.0928 -0.10852,0.13953 -0.0358,0.0467 -0.0711,0.094 -0.10646,0.14108 -0.0356,0.047 -0.0712,0.0937 -0.10645,0.14108 -0.0353,0.0474 -0.0701,0.0954 -0.1049,0.14314 -0.0348,0.0477 -0.0695,0.0951 -0.10387,0.14314 -0.0343,0.048 -0.0684,0.0965 -0.10232,0.1447 -0.0341,0.0482 -0.0677,0.0966 -0.10129,0.14521 -0.0337,0.0485 -0.067,0.0969 -0.10025,0.14572 -0.0331,0.0488 -0.066,0.0981 -0.0987,0.14728 -0.0328,0.0492 -0.0658,0.0984 -0.0982,0.1478 -0.0324,0.0494 -0.0646,0.0987 -0.0966,0.14831 -0.0321,0.0496 -0.0639,0.0994 -0.0956,0.14934 -0.0317,0.05 -0.0633,0.10061 -0.0946,0.1509 -0.0312,0.0501 -0.0622,0.10002 -0.093,0.15038 -0.0308,0.0505 -0.0611,0.10115 -0.0915,0.15193 -0.0304,0.0506 -0.0606,0.10154 -0.0904,0.15244 -0.0301,0.0509 -0.0598,0.10222 -0.0894,0.15348 -0.01,0.0166 -0.0194,0.033 -0.0289,0.0496 -0.0294,0.0512 -0.0583,0.10258 -0.0873,0.154 -0.029,0.0515 -0.0578,0.10318 -0.0863,0.15502 -0.0287,0.0518 -0.0571,0.10403 -0.0853,0.15607 -0.0281,0.0519 -0.056,0.10392 -0.0837,0.15606 -0.0278,0.0521 -0.0553,0.10423 -0.0827,0.15658 -0.0273,0.0524 -0.0542,0.105 -0.0811,0.15761 -0.0268,0.0527 -0.0537,0.10525 -0.0801,0.15813 -0.0265,0.0528 -0.053,0.10608 -0.0791,0.15917 -0.026,0.0531 -0.0515,0.10595 -0.077,0.15916 -0.0255,0.0533 -0.0509,0.10672 -0.076,0.1602 -0.0251,0.0535 -0.0497,0.10703 -0.0744,0.16071 -0.0246,0.0536 -0.0492,0.10742 -0.0734,0.16123 -0.0243,0.0538 -0.0485,0.10775 -0.0724,0.16175 -0.0237,0.054 -0.047,0.10813 -0.0703,0.16226 -0.0234,0.0542 -0.0463,0.10793 -0.0692,0.16227 -0.0229,0.0544 -0.0458,0.10921 -0.0682,0.16381 -0.0223,0.0544 -0.0443,0.10871 -0.0661,0.1633 -0.022,0.0547 -0.044,0.10991 -0.0656,0.16484 -0.0214,0.0547 -0.0426,0.10942 -0.0636,0.16434 -0.0211,0.0549 -0.0419,0.11024 -0.0625,0.16536 -0.0206,0.0552 -0.0408,0.1105 -0.061,0.16588 -0.02,0.0553 -0.0399,0.1105 -0.0594,0.16588 -0.0197,0.0555 -0.0392,0.11082 -0.0584,0.1664 -0.0192,0.0555 -0.0381,0.11126 -0.0568,0.16692 -0.0187,0.0556 -0.0376,0.11113 -0.0558,0.16691 -0.0182,0.0559 -0.036,0.11191 -0.0537,0.16795 -0.0177,0.0559 -0.0354,0.11197 -0.0527,0.16795 -0.0173,0.0561 -0.0344,0.11222 -0.0512,0.16846 -0.0168,0.056 -0.0333,0.1123 -0.0496,0.16847 -0.0164,0.0563 -0.0326,0.11262 -0.0486,0.16898 -0.0159,0.0564 -0.0311,0.113 -0.0465,0.1695 -0.0153,0.0564 -0.0307,0.113 -0.0455,0.1695 -0.0149,0.0566 -0.0295,0.11281 -0.0439,0.1695 -0.0144,0.0565 -0.0289,0.11338 -0.0429,0.17001 -0.0139,0.0567 -0.0274,0.11326 -0.0408,0.17002 -0.0135,0.0567 -0.0268,0.11371 -0.0398,0.17053 -0.0129,0.0569 -0.0253,0.11357 -0.0377,0.17053 -0.0125,0.057 -0.0247,0.11403 -0.0367,0.17105 -0.0119,0.057 -0.0237,0.11403 -0.0351,0.17105 -0.0116,0.057 -0.023,0.11402 -0.0341,0.17105 -0.0109,0.0572 -0.0216,0.11433 -0.032,0.17156 -0.0105,0.057 -0.0209,0.11397 -0.031,0.17105 -0.01,0.0572 -0.0199,0.11435 -0.0295,0.17157 -0.009,0.0571 -0.0189,0.11441 -0.0279,0.17156 -0.009,0.0573 -0.0174,0.11482 -0.0258,0.17209 -0.009,0.0573 -0.0168,0.11422 -0.0248,0.17156 -0.008,0.0572 -0.0162,0.11482 -0.0238,0.17209 -0.008,0.0572 -0.0146,0.11436 -0.0217,0.17156 -0.007,0.0573 -0.0141,0.11478 -0.0207,0.17208 -0.007,0.0573 -0.0125,0.11433 -0.0186,0.17157 -0.006,0.0573 -0.012,0.11473 -0.0176,0.17208 -0.006,0.0573 -0.0109,0.1143 -0.016,0.17157 -0.005,0.0573 -0.01,0.11483 -0.0145,0.17208 -0.005,0.0572 -0.009,0.1143 -0.0129,0.17157 -0.004,0.0571 -0.008,0.11444 -0.0114,0.17156 -0.004,0.0572 -0.007,0.11438 -0.01,0.17157 -0.003,0.0572 -0.006,0.11444 -0.008,0.17156 -0.003,0.0571 -0.005,0.114 -0.007,0.17105 -0.002,0.0572 -0.004,0.1149 -0.005,0.17208 -0.002,0.0569 -0.003,0.11363 -0.004,0.17054 -0.001,0.0571 -0.002,0.11408 -0.003,0.17105 -4.3e-4,0.0569 -5.6e-4,0.11369 -5.3e-4,0.17053 -1.5e-4,0.0569 1.9e-4,0.11422 5.3e-4,0.17105 5.8e-4,0.0567 0.001,0.11331 0.002,0.17001 9.5e-4,0.0566 0.002,0.11346 0.004,0.17002 0.002,0.0567 0.003,0.1133 0.005,0.17001 0.002,0.0565 0.004,0.11308 0.007,0.1695 0.003,0.0565 0.005,0.11306 0.008,0.1695 0.003,0.0564 0.006,0.11269 0.01,0.16898 0.003,0.0564 0.007,0.11273 0.0108,0.16899 0.004,0.0562 0.008,0.1124 0.0129,0.16846 0.004,0.0561 0.009,0.11191 0.0134,0.16795 0.005,0.0559 0.0104,0.11217 0.016,0.16795 0.005,0.0559 0.0112,0.11166 0.017,0.16743 0.006,0.0559 0.0121,0.11166 0.0186,0.16743 0.006,0.0556 0.0132,0.11089 0.0202,0.1664 0.007,0.0554 0.0143,0.11066 0.0217,0.16588 0.007,0.0553 0.0153,0.11073 0.0232,0.16588 0.008,0.0553 0.0163,0.11072 0.0248,0.16588 0.008,0.0551 0.017,0.10987 0.0258,0.16485 0.009,0.0548 0.0183,0.10965 0.0279,0.16433 0.009,0.0548 0.019,0.10962 0.0289,0.16433 0.01,0.0546 0.0201,0.1094 0.0305,0.16382 0.0104,0.0543 0.0211,0.10855 0.032,0.16278 0.0109,0.0543 0.0216,0.10862 0.0331,0.16278 0.0114,0.054 0.0233,0.10787 0.0351,0.16174 0.012,0.0539 0.0243,0.10807 0.0367,0.16175 0.0123,0.0538 0.0249,0.10715 0.0377,0.16072 0.0128,0.0535 0.026,0.10692 0.0393,0.16019 0.0133,0.0534 0.027,0.10697 0.0408,0.1602 0.0139,0.0531 0.0279,0.10578 0.0424,0.15865 0.0144,0.053 0.0291,0.10589 0.0439,0.15864 0.0147,0.0528 0.0297,0.10553 0.045,0.15813 0.0152,0.0524 0.0308,0.10486 0.0465,0.1571 0.0157,0.0523 0.0318,0.10445 0.0481,0.15658 0.0163,0.0521 0.0329,0.10416 0.0496,0.15606 0.0167,0.0519 0.0335,0.10342 0.0506,0.15503 0.0171,0.0516 0.0345,0.10319 0.0522,0.15451 0.0178,0.0514 0.036,0.10285 0.0543,0.154 0.0182,0.0511 0.0366,0.10211 0.0553,0.15296 0.0186,0.051 0.0373,0.1017 0.0563,0.15245 0.0191,0.0506 0.0383,0.10108 0.0579,0.15141 0.0195,0.0505 0.0395,0.1012 0.0594,0.15141 0.0201,0.05 0.0405,0.10005 0.061,0.14986 0.0205,0.0499 0.0411,0.0996 0.062,0.14935 0.021,0.0495 0.0421,0.0991 0.0636,0.14831 0.0213,0.0494 0.0428,0.0986 0.0646,0.14779 0.0219,0.049 0.0443,0.098 0.0667,0.14677 0.0224,0.0488 0.0449,0.0973 0.0677,0.14572 0.0227,0.0486 0.0455,0.0968 0.0687,0.14521 0.0233,0.0482 0.047,0.0962 0.0708,0.14418 0.0236,0.0479 0.0472,0.096 0.0713,0.14366 0.0242,0.0477 0.0487,0.0953 0.0734,0.14263 0.0246,0.0472 0.0493,0.0942 0.0744,0.14107 0.0249,0.047 0.0501,0.0944 0.0755,0.14108 0.0256,0.0467 0.0515,0.0931 0.0775,0.13953 0.0259,0.0463 0.0517,0.0924 0.078,0.13849 0.0264,0.0461 0.0533,0.0922 0.0801,0.13798 0.0267,0.0457 0.0539,0.0911 0.0811,0.13642 0.0272,0.0455 0.0546,0.0912 0.0822,0.13643 0.0276,0.045 0.0552,0.0896 0.0832,0.13436 0.0281,0.0449 0.0563,0.0898 0.0847,0.13436 0.0286,0.0444 0.0573,0.0887 0.0863,0.1328 0.029,0.0441 0.0584,0.0875 0.0878,0.13126 0.0293,0.0438 0.0586,0.0873 0.0884,0.13074 0.0298,0.0433 0.0596,0.0867 0.0899,0.12971 0.0301,0.0432 0.0604,0.0863 0.091,0.12919 0.0307,0.0426 0.0619,0.0849 0.093,0.12713 0.0309,0.0424 0.0618,0.0845 0.093,0.1266 0.0314,0.042 0.0633,0.084 0.0951,0.12558 0.032,0.0417 0.0637,0.0828 0.0961,0.12402 0.0322,0.0412 0.0646,0.0822 0.0972,0.12299 0.0326,0.0409 0.0657,0.0819 0.0987,0.12248 0.0329,0.0404 0.0659,0.0804 0.0992,0.1204 0.0334,0.0401 0.067,0.08 0.10077,0.11989 0.0337,0.0398 0.0682,0.0795 0.10231,0.11886 0.0342,0.0393 0.0682,0.0784 0.10284,0.1173 0.0346,0.0389 0.0694,0.0772 0.10439,0.11576 0.0349,0.0385 0.0701,0.0771 0.10542,0.11523 0.0354,0.0381 0.0712,0.0761 0.10697,0.11369 0.0356,0.0377 0.0715,0.0748 0.10748,0.11214 0.0361,0.0374 0.0721,0.0746 0.10852,0.11162 0.0365,0.0369 0.0732,0.074 0.11008,0.11059 0.0368,0.0364 0.0739,0.0725 0.1111,0.10852 0.0372,0.0361 0.0741,0.0718 0.11162,0.10749 0.0376,0.0356 0.0758,0.0712 0.11369,0.10645 0.0378,0.0352 0.0755,0.07 0.11369,0.1049 0.0384,0.0348 0.077,0.0695 0.11575,0.10387 0.0385,0.0344 0.077,0.0689 0.11576,0.10284 0.039,0.034 0.078,0.0677 0.1173,0.10128 0.0393,0.0335 0.0792,0.0667 0.11886,0.0997 0.0395,0.033 0.079,0.0656 0.11885,0.0982 0.04,0.0328 0.0801,0.0657 0.12041,0.0982 0.0401,0.0324 0.0808,0.0635 0.12144,0.0951 0.0406,0.0318 0.0811,0.0637 0.12196,0.0951 0.0411,0.0311 0.0827,0.0621 0.12402,0.093 0.041,0.0311 0.0826,0.0615 0.12402,0.092 0.0415,0.0305 0.0832,0.0604 0.12506,0.0904 0.042,0.0298 0.0838,0.0599 0.12609,0.0894 0.0424,0.0291 0.0846,0.0587 0.12712,0.0879 0.0423,0.0291 0.0848,0.058 0.12765,0.0863 0.0429,0.0285 0.086,0.0571 0.12919,0.0853 0.0432,0.0277 0.0864,0.0555 0.1297,0.0832 0.0433,0.0278 0.0871,0.0546 0.13075,0.0816 0.0342,0.0207 0.0681,0.0423 0.10232,0.063 l 0.58807,0.33952 84.32664,48.68591 0.42891,0.24754 c 0.0323,0.0178 0.0643,0.0355 0.0966,0.0532 0.0449,0.025 0.0902,0.0493 0.135912,0.0729 0.0453,0.0243 0.0912,0.0481 0.13694,0.0718 0.0456,0.0236 0.0914,0.0474 0.13746,0.0703 0.046,0.0229 0.0919,0.0457 0.13797,0.0687 0.046,0.0229 0.0925,0.0447 0.13901,0.0667 0.0464,0.0222 0.0933,0.0444 0.14005,0.0661 0.0468,0.0214 0.0937,0.0429 0.14056,0.0641 0.0472,0.0208 0.0939,0.0419 0.14107,0.0625 0.0472,0.0208 0.0946,0.0414 0.14211,0.0615 0.0474,0.02 0.095,0.0398 0.14263,0.0594 0.0475,0.02 0.0953,0.0392 0.14314,0.0584 0.0478,0.0193 0.0956,0.0378 0.14366,0.0563 0.0482,0.0185 0.0963,0.0372 0.1447,0.0553 0.0483,0.0182 0.0972,0.036 0.14573,0.0537 0.0485,0.0175 0.097,0.0347 0.14572,0.0517 0.0489,0.0172 0.0972,0.0339 0.14625,0.0506 0.0489,0.0165 0.0982,0.0331 0.14728,0.0491 0.0491,0.0161 0.0984,0.0314 0.14779,0.047 0.0494,0.0156 0.0986,0.031 0.14831,0.046 0.0495,0.0149 0.0991,0.0296 0.14883,0.0439 0.0497,0.0145 0.0995,0.0289 0.14935,0.0429 0.0498,0.014 0.0998,0.0279 0.14986,0.0413 0.0501,0.0134 0.10014,0.0263 0.15037,0.0393 0.0503,0.0129 0.1009,0.0258 0.15142,0.0382 0.0503,0.0124 0.10089,0.0244 0.15141,0.0362 0.0507,0.0118 0.10112,0.0237 0.15193,0.0351 0.0506,0.0113 0.10162,0.0223 0.15244,0.0331 0.0509,0.0108 0.10196,0.0217 0.15297,0.032 0.0511,0.0103 0.10225,0.0206 0.15348,0.0305 0.0511,0.0101 0.10216,0.0188 0.15347,0.0279 0.0514,0.009 0.10301,0.0185 0.15452,0.0274 0.0515,0.009 0.10295,0.0172 0.15451,0.0254 0.0516,0.008 0.10331,0.0161 0.15503,0.0238 0.0517,0.008 0.1032,0.0151 0.15503,0.0222 0.0519,0.007 0.10402,0.0138 0.15606,0.0201 0.052,0.006 0.10388,0.0132 0.15606,0.0191 0.0521,0.006 0.10437,0.0116 0.15658,0.0169 0.0521,0.006 0.10435,0.0109 0.15658,0.0161 0.0524,0.005 0.10512,0.009 0.15761,0.0135 0.0523,0.005 0.10467,0.009 0.1571,0.013 0.0525,0.004 0.10502,0.007 0.15762,0.0109 0.0525,0.003 0.105,0.006 0.15761,0.009 0.0527,0.003 0.10531,0.006 0.15813,0.007 0.0528,0.003 0.10576,0.004 0.15865,0.006 0.0528,0.003 0.10574,0.003 0.15864,0.005 0.0529,0.003 0.10574,0.003 0.15865,0.003 0.053,0 0.10605,0 0.15916,0 0.0531,1.4e-4 0.10604,-5e-5 0.15916,0 0.0531,0 0.10648,0 0.15968,-0.003 0.0531,0 0.10647,-0.003 0.15968,-0.003 0.0531,-0.003 0.10641,-0.003 0.15969,-0.006 0.0531,-0.003 0.10646,-0.004 0.15967,-0.006 0.0533,-0.003 0.10682,-0.006 0.1602,-0.008 0.0534,-0.003 0.10629,-0.006 0.15968,-0.01 0.0534,-0.003 0.10684,-0.007 0.1602,-0.0119 0.0534,-0.004 0.10684,-0.009 0.1602,-0.013 0.0535,-0.005 0.10713,-0.0101 0.16071,-0.0151 0.0533,-0.005 0.10683,-0.0106 0.1602,-0.0164 0.0535,-0.006 0.10668,-0.0114 0.16019,-0.0175 0.0534,-0.006 0.10676,-0.0132 0.1602,-0.0201 0.0535,-0.006 0.10726,-0.014 0.16071,-0.0212 0.0534,-0.007 0.10678,-0.0153 0.1602,-0.0233 0.0534,-0.008 0.10684,-0.0159 0.1602,-0.0243 0.0535,-0.008 0.10718,-0.0175 0.16071,-0.0265 0.0534,-0.009 0.10632,-0.018 0.15968,-0.0274 0.0534,-0.009 0.10687,-0.0196 0.1602,-0.0295 0.0534,-0.01 0.10677,-0.0204 0.1602,-0.031 0.0534,-0.0106 0.10687,-0.0214 0.16019,-0.0325 0.0532,-0.0111 0.10645,-0.0224 0.15968,-0.0341 0.0532,-0.0116 0.10653,-0.0231 0.15968,-0.0351 0.0533,-0.0121 0.10644,-0.025 0.15968,-0.0377 0.0532,-0.0125 0.10607,-0.0251 0.15917,-0.0382 0.0531,-0.0133 0.10659,-0.0269 0.15968,-0.0408 0.053,-0.0136 0.10569,-0.0272 0.15864,-0.0413 0.053,-0.0142 0.10618,-0.029 0.15917,-0.0439 0.0528,-0.0148 0.10587,-0.0298 0.15864,-0.045 0.0529,-0.0153 0.10534,-0.0307 0.15813,-0.0465 0.0528,-0.0159 0.10596,-0.0317 0.15865,-0.0481 0.0528,-0.0163 0.10548,-0.0332 0.15813,-0.0501 0.0526,-0.0166 0.1051,-0.0335 0.15761,-0.0506 0.0524,-0.0174 0.1047,-0.0353 0.1571,-0.0532 0.0525,-0.0178 0.10519,-0.0354 0.15761,-0.0537 0.0523,-0.0185 0.10442,-0.0374 0.15658,-0.0563 0.0523,-0.0188 0.1044,-0.0381 0.15658,-0.0574 0.0521,-0.0194 0.10414,-0.0389 0.15607,-0.0589 0.052,-0.0198 0.1042,-0.0402 0.15606,-0.0605 0.0518,-0.0203 0.10334,-0.0407 0.15503,-0.0615 0.0518,-0.0209 0.10383,-0.0418 0.15554,-0.063 0.0515,-0.0215 0.10307,-0.0436 0.15451,-0.0656 0.0515,-0.0219 0.1026,-0.0438 0.154,-0.0661 0.0515,-0.0223 0.10317,-0.0449 0.15451,-0.0677 0.0511,-0.0229 0.10202,-0.0459 0.15296,-0.0693 0.0511,-0.0234 0.10201,-0.0473 0.15297,-0.0713 0.0509,-0.0238 0.10212,-0.0475 0.15296,-0.0718 0.0507,-0.0243 0.10135,-0.0491 0.15193,-0.0739 0.0506,-0.0248 0.10103,-0.0497 0.15141,-0.0749 0.0504,-0.0254 0.10061,-0.0512 0.1509,-0.077 0.0502,-0.0259 0.10081,-0.0516 0.15089,-0.078 0.0502,-0.0263 0.0998,-0.0528 0.14986,-0.0796 0.0499,-0.0268 0.0996,-0.0539 0.14935,-0.0811 0.0498,-0.0271 0.0997,-0.0546 0.14934,-0.0822 0.0495,-0.0277 0.099,-0.0556 0.14831,-0.0837 0.0494,-0.0281 0.0987,-0.0566 0.1478,-0.0853 0.049,-0.0286 0.0983,-0.0572 0.14728,-0.0863 0.049,-0.029 0.0979,-0.0584 0.14676,-0.0879 0.0487,-0.0296 0.0973,-0.0593 0.14573,-0.0894 0.0486,-0.03 0.0968,-0.0606 0.1452,-0.0909 0.0484,-0.0304 0.0969,-0.0612 0.14522,-0.092 0.0482,-0.0309 0.0961,-0.0621 0.14417,-0.0935 0.0478,-0.0313 0.0954,-0.0628 0.14315,-0.0946 0.0476,-0.032 0.0953,-0.0641 0.14262,-0.0966 0.0475,-0.0323 0.0947,-0.065 0.14211,-0.0977 0.0473,-0.0326 0.094,-0.0652 0.14108,-0.0982 0.047,-0.0332 0.0943,-0.0665 0.14108,-0.10025 0.0467,-0.0336 0.0929,-0.0678 0.13952,-0.1018 0.0466,-0.034 0.0933,-0.0683 0.13953,-0.10284 0.0461,-0.0344 0.0921,-0.069 0.13798,-0.10387 0.0461,-0.0348 0.0921,-0.0696 0.13797,-0.1049 0.0458,-0.0352 0.091,-0.0708 0.13643,-0.10645 0.0454,-0.0358 0.0908,-0.0718 0.13591,-0.10801 0.0453,-0.0362 0.0904,-0.0729 0.13539,-0.10955 0.045,-0.0366 0.0901,-0.0731 0.13487,-0.11007 0.0447,-0.0369 0.089,-0.0743 0.13333,-0.11162 0.0443,-0.0374 0.0888,-0.0747 0.13281,-0.11266 0.0441,-0.0378 0.0879,-0.076 0.13177,-0.1142 0.0439,-0.0383 0.0877,-0.0766 0.13126,-0.11524 0.0435,-0.0384 0.087,-0.0769 0.13023,-0.11575 0.0433,-0.039 0.0868,-0.0785 0.12971,-0.11783 0.0429,-0.0394 0.0856,-0.0791 0.12815,-0.11885 0.0427,-0.0399 0.0847,-0.0796 0.12713,-0.11989 0.0423,-0.0401 0.0846,-0.0805 0.1266,-0.12093 0.0421,-0.0406 0.0839,-0.0815 0.12558,-0.12247 0.0418,-0.0409 0.0837,-0.0822 0.12505,-0.12351 0.0415,-0.0413 0.0828,-0.0823 0.12403,-0.12402 0.041,-0.0417 0.0818,-0.0839 0.12247,-0.12609 0.0408,-0.0421 0.0814,-0.0838 0.12196,-0.12609 0.0405,-0.0424 0.0808,-0.0854 0.12092,-0.12816 0.04,-0.0428 0.0801,-0.0855 0.11989,-0.12867 0.0397,-0.0429 0.0788,-0.0864 0.11834,-0.12971 0.0395,-0.0435 0.0792,-0.0869 0.11834,-0.13074 0.0391,-0.0439 0.0779,-0.0881 0.11679,-0.13229 0.0387,-0.0441 0.0774,-0.0884 0.11575,-0.13281 0.0384,-0.0445 0.0766,-0.089 0.11472,-0.13384 0.038,-0.0449 0.076,-0.0902 0.11369,-0.13539 0.0377,-0.0451 0.0753,-0.0905 0.11266,-0.13591 0.0374,-0.0456 0.0746,-0.091 0.11162,-0.13695 0.037,-0.0457 0.0735,-0.0914 0.11007,-0.13746 0.0367,-0.0462 0.0732,-0.093 0.10955,-0.13952 0.0362,-0.0465 0.0722,-0.0927 0.108,-0.13953 0.0361,-0.0466 0.0715,-0.0935 0.10698,-0.14056 0.0356,-0.0472 0.0711,-0.0947 0.10645,-0.14211 0.0356,-0.047 0.0698,-0.095 0.10438,-0.14263 0.0349,-0.0476 0.0697,-0.0953 0.10439,-0.14314 0.0342,-0.048 0.068,-0.0964 0.1018,-0.14469 0.0343,-0.0482 0.0682,-0.0966 0.10181,-0.14521 0.0336,-0.0486 0.067,-0.0974 0.10025,-0.14625 0.0336,-0.0486 0.0659,-0.0975 0.0987,-0.14676 0.0329,-0.049 0.0659,-0.0981 0.0977,-0.1478 0.0323,-0.0495 0.0656,-0.0984 0.0971,-0.1483 0.0323,-0.0496 0.064,-0.0998 0.0956,-0.14987 0.0316,-0.0499 0.0632,-0.10007 0.0941,-0.15038 0.0316,-0.0499 0.0625,-0.10006 0.0935,-0.15037 0.031,-0.0504 0.061,-0.10097 0.092,-0.15142 0.0302,-0.0507 0.0608,-0.10173 0.0909,-0.15244 0.0301,-0.0509 0.0598,-0.10224 0.0894,-0.15348 0.01,-0.0166 0.0189,-0.033 0.0284,-0.0496 0.0295,-0.0513 0.0585,-0.10276 0.0873,-0.15451 0.029,-0.0514 0.0577,-0.10311 0.0858,-0.15503 0.0289,-0.0516 0.0571,-0.10352 0.0853,-0.15555 0.0281,-0.0519 0.0556,-0.10416 0.0837,-0.15606 0.0275,-0.0524 0.0552,-0.10518 0.0827,-0.15761 0.0275,-0.0523 0.0541,-0.10512 0.0811,-0.15762 0.0266,-0.0527 0.0532,-0.10489 0.0796,-0.15761 0.0261,-0.0531 0.053,-0.10607 0.0791,-0.15916 0.026,-0.0531 0.0515,-0.10596 0.077,-0.15917 0.0253,-0.0535 0.0508,-0.10676 0.076,-0.16019 0.0253,-0.0535 0.0498,-0.10699 0.0744,-0.16072 0.0245,-0.0537 0.0492,-0.10744 0.0734,-0.16123 0.0238,-0.0541 0.0486,-0.10768 0.0724,-0.16175 0.0238,-0.0541 0.0474,-0.108 0.0708,-0.16226 0.023,-0.0543 0.0464,-0.10845 0.0693,-0.16278 0.0222,-0.0546 0.0454,-0.10878 0.0677,-0.1633 0.0222,-0.0546 0.0446,-0.10917 0.0667,-0.16381 0.022,-0.0546 0.0436,-0.10951 0.0651,-0.16433 0.0215,-0.0549 0.0431,-0.1098 0.0641,-0.16485 0.0209,-0.055 0.0415,-0.11016 0.062,-0.16536 0.0207,-0.0551 0.0413,-0.11018 0.0615,-0.16537 0.0201,-0.0554 0.0398,-0.1109 0.0594,-0.1664 0.0196,-0.0553 0.0389,-0.1104 0.0579,-0.16588 0.0193,-0.0556 0.0385,-0.11132 0.0574,-0.16691 0.0186,-0.0559 0.0371,-0.11199 0.0553,-0.16795 0.0183,-0.0557 0.0359,-0.11158 0.0537,-0.16743 0.0177,-0.0558 0.0354,-0.11148 0.0527,-0.16744 0.0173,-0.0561 0.0345,-0.11219 0.0512,-0.16846 0.0169,-0.0562 0.0332,-0.11273 0.0496,-0.16898 0.0163,-0.0562 0.0328,-0.1122 0.0486,-0.16847 0.0158,-0.0565 0.0312,-0.11291 0.0465,-0.1695 0.0155,-0.0564 0.0306,-0.11305 0.0455,-0.1695 0.0149,-0.0567 0.0294,-0.11332 0.0439,-0.17001 0.0144,-0.0566 0.029,-0.11284 0.0429,-0.1695 0.0139,-0.0568 0.0278,-0.11363 0.0413,-0.17053 0.0135,-0.0567 0.0263,-0.11374 0.0393,-0.17053 0.0128,-0.0568 0.0258,-0.11369 0.0382,-0.17054 0.0125,-0.057 0.0246,-0.11352 0.0367,-0.17053 0.0119,-0.057 0.0233,-0.11399 0.0346,-0.17105 0.0115,-0.057 0.0227,-0.11448 0.0336,-0.17156 0.0111,-0.0571 0.0221,-0.11386 0.0326,-0.17105 0.0106,-0.057 0.021,-0.11445 0.031,-0.17157 0.01,-0.0572 0.0198,-0.11437 0.0295,-0.17156 0.009,-0.0572 0.0188,-0.11427 0.0279,-0.17157 0.009,-0.0572 0.0178,-0.11435 0.0264,-0.17157 0.008,-0.0572 0.0168,-0.11437 0.0248,-0.17156 l 5.3e-4,-0.0119 0.0832,-0.67644 10e-4,-0.0124 14.14745,-115.42345 c 0.0625,-0.4811 0.13274,-0.95642 0.20877,-1.43144 z" />
    <path
       id="path1366-5"
       style="fill:none;fill-rule:evenodd;stroke:#000000;stroke-width:2.43116;stroke-linecap:round;stroke-linejoin:round;stroke-miterlimit:4;stroke-dasharray:none;stroke-opacity:1;paint-order:normal"
       d="m 129.55177,78.265385 c -0.37226,-0.214929 -0.87092,-0.04375 -1.11799,0.38418 l -1.26513,2.191268 c -0.24706,0.42793 -0.14621,0.94577 0.22606,1.160699 l 1.28539,0.742118 -12.92929,22.39419 c -1.64566,2.96898 -4.42116,6.09492 -6.65487,7.53234 l -93.317702,70.28903 -0.38646,0.29091 -0.0131,0.01 c -0.0414,0.0319 -0.0827,0.064 -0.12393,0.0962 -0.0455,0.0357 -0.0909,0.0717 -0.13615,0.1078 -0.0452,0.0363 -0.0903,0.0727 -0.13521,0.10937 -0.045,0.0366 -0.0897,0.0734 -0.13441,0.11039 -0.0447,0.0369 -0.0892,0.074 -0.13359,0.11139 -0.0445,0.0373 -0.0888,0.075 -0.13302,0.11277 -0.0441,0.0378 -0.088,0.0758 -0.13187,0.11397 -0.0437,0.0381 -0.0873,0.0766 -0.1307,0.11517 -0.0436,0.0386 -0.0871,0.0774 -0.13048,0.11638 -0.0433,0.039 -0.0864,0.0782 -0.12932,0.11756 -0.0429,0.0394 -0.0856,0.079 -0.12816,0.11878 -0.0427,0.0399 -0.0852,0.0799 -0.12758,0.12015 -0.0423,0.0401 -0.0845,0.0803 -0.12655,0.12076 -0.042,0.0406 -0.0839,0.0814 -0.12561,0.12237 -0.0418,0.0409 -0.0834,0.0821 -0.1248,0.12336 -0.0415,0.0413 -0.0828,0.0827 -0.124,0.12436 -0.0411,0.0417 -0.0821,0.0835 -0.12285,0.12555 -0.0408,0.0421 -0.0813,0.0843 -0.12168,0.12676 -0.0404,0.0423 -0.0806,0.0847 -0.12066,0.12735 -0.0401,0.0428 -0.08,0.0858 -0.11971,0.12895 -0.0398,0.0431 -0.0794,0.0864 -0.11891,0.12995 -0.0395,0.0434 -0.0789,0.0871 -0.1181,0.13095 -0.039,0.0437 -0.078,0.0877 -0.11672,0.13174 -0.0387,0.0442 -0.0774,0.0887 -0.11579,0.13335 -0.0384,0.0445 -0.0767,0.0891 -0.11475,0.13395 -0.038,0.0447 -0.0757,0.0896 -0.11337,0.13474 -0.0378,0.0452 -0.0754,0.0906 -0.11279,0.13614 -0.0373,0.0455 -0.0744,0.0911 -0.1114,0.13693 -0.037,0.0458 -0.0739,0.0918 -0.11059,0.13795 -0.0367,0.0462 -0.0731,0.0926 -0.10943,0.13914 -0.0363,0.0464 -0.0724,0.093 -0.1084,0.13973 -0.0358,0.0467 -0.0713,0.0937 -0.10666,0.14074 -0.0356,0.047 -0.071,0.0942 -0.1062,0.14154 -0.0352,0.0474 -0.0702,0.095 -0.10505,0.14273 -0.0348,0.0477 -0.0693,0.0955 -0.10366,0.14353 -0.0343,0.048 -0.0684,0.0961 -0.10227,0.14434 -0.0341,0.0482 -0.0678,0.0967 -0.10146,0.14534 -0.0337,0.0485 -0.0671,0.0971 -0.10043,0.14592 -0.0331,0.0488 -0.066,0.0978 -0.0987,0.14694 -0.0328,0.0492 -0.0655,0.0985 -0.0979,0.14794 -0.0324,0.0494 -0.0648,0.0989 -0.0968,0.14852 -0.0321,0.0496 -0.0638,0.0994 -0.0955,0.14933 -0.0317,0.05 -0.0631,0.10022 -0.0943,0.15051 -0.0312,0.0501 -0.0622,0.10037 -0.0931,0.15073 -0.0308,0.0505 -0.0615,0.10115 -0.0919,0.15193 -0.0304,0.0506 -0.0604,0.10142 -0.0903,0.15232 -0.0301,0.0509 -0.0599,0.10204 -0.0895,0.1533 -0.01,0.0166 -0.0192,0.0332 -0.0287,0.0498 -0.0294,0.0512 -0.0585,0.10253 -0.0875,0.15394 -0.029,0.0515 -0.0578,0.10329 -0.0863,0.15514 -0.0287,0.0518 -0.0571,0.10369 -0.0853,0.15573 -0.0281,0.0519 -0.056,0.10396 -0.0837,0.1561 -0.0278,0.0521 -0.0553,0.1044 -0.0826,0.15675 -0.0273,0.0524 -0.0544,0.10492 -0.0813,0.15753 -0.0268,0.0527 -0.0535,0.10545 -0.0799,0.15833 -0.0265,0.0528 -0.0528,0.10585 -0.0788,0.15894 -0.026,0.0531 -0.0517,0.10612 -0.0772,0.15933 -0.0255,0.0533 -0.0508,0.10666 -0.0758,0.16014 -0.0251,0.0535 -0.0501,0.10705 -0.0748,0.16073 -0.0247,0.0536 -0.049,0.10733 -0.0732,0.16114 -0.0243,0.0538 -0.0483,0.10773 -0.0721,0.16173 -0.0237,0.054 -0.0472,0.10802 -0.0705,0.16215 -0.0234,0.0542 -0.0465,0.1084 -0.0695,0.16274 -0.0229,0.0544 -0.0456,0.10894 -0.0681,0.16354 -0.0223,0.0544 -0.0444,0.10896 -0.0662,0.16355 -0.022,0.0547 -0.0438,0.10961 -0.0654,0.16454 -0.0214,0.0547 -0.0426,0.10962 -0.0636,0.16454 -0.0211,0.0549 -0.0419,0.11002 -0.0626,0.16514 -0.0206,0.0552 -0.041,0.11057 -0.0612,0.16595 -0.02,0.0553 -0.0398,0.11057 -0.0593,0.16595 -0.0197,0.0555 -0.0391,0.11096 -0.0583,0.16654 -0.0192,0.0555 -0.0382,0.11111 -0.057,0.16677 -0.0187,0.0556 -0.0372,0.11136 -0.0554,0.16714 -0.0182,0.0559 -0.0363,0.11192 -0.054,0.16796 -0.0177,0.0559 -0.0353,0.11178 -0.0525,0.16776 -0.0173,0.0561 -0.0343,0.11231 -0.0511,0.16855 -0.0168,0.056 -0.0333,0.1122 -0.0496,0.16837 -0.0164,0.0563 -0.0326,0.11259 -0.0486,0.16895 -0.0159,0.0564 -0.0315,0.11287 -0.047,0.16937 -0.0153,0.0564 -0.0303,0.11287 -0.0451,0.16937 -0.015,0.0566 -0.0296,0.11327 -0.0441,0.16996 -0.0144,0.0565 -0.0286,0.11314 -0.0426,0.16977 -0.0139,0.0567 -0.0276,0.11341 -0.041,0.17017 -0.0135,0.0567 -0.0267,0.11355 -0.0397,0.17037 -0.0129,0.0569 -0.0256,0.11383 -0.0381,0.17079 -0.0125,0.057 -0.0248,0.11395 -0.0368,0.17097 -0.0119,0.057 -0.0236,0.11396 -0.035,0.17098 -0.0116,0.057 -0.0229,0.11396 -0.034,0.17099 -0.0109,0.0572 -0.0216,0.11436 -0.0321,0.17159 -0.0106,0.057 -0.0209,0.1141 -0.0309,0.17118 -0.01,0.0572 -0.0198,0.11437 -0.0293,0.17159 -0.009,0.0571 -0.0188,0.11425 -0.0278,0.1714 -0.009,0.0573 -0.0177,0.11452 -0.0262,0.17179 -0.009,0.0573 -0.0169,0.11466 -0.0249,0.172 -0.008,0.0572 -0.0159,0.11453 -0.0234,0.1718 -0.008,0.0572 -0.0149,0.11439 -0.022,0.17159 -0.007,0.0573 -0.0138,0.11469 -0.0203,0.172 -0.007,0.0573 -0.0128,0.11456 -0.0188,0.1718 -0.006,0.0573 -0.012,0.11466 -0.0175,0.17201 -0.006,0.0573 -0.011,0.11453 -0.0161,0.1718 -0.005,0.0573 -0.01,0.11457 -0.0142,0.17182 -0.005,0.0572 -0.009,0.11455 -0.0133,0.17182 -0.004,0.0571 -0.008,0.11431 -0.0112,0.17143 -0.004,0.0572 -0.007,0.11444 -0.01,0.17163 -0.003,0.0572 -0.006,0.11432 -0.008,0.17144 -0.003,0.0571 -0.005,0.11419 -0.007,0.17124 -0.002,0.0572 -0.004,0.11445 -0.005,0.17164 -0.002,0.0569 -0.003,0.11393 -0.004,0.17084 -0.001,0.0571 -0.002,0.11407 -0.003,0.17104 -4.3e-4,0.0569 -6.4e-4,0.11381 -5.9e-4,0.17065 -1.4e-4,0.0569 0,0.11382 3.3e-4,0.17065 5.8e-4,0.0567 0.001,0.11355 0.002,0.17025 9.6e-4,0.0566 0.002,0.11331 0.004,0.16987 0.002,0.0567 0.003,0.11355 0.005,0.17026 0.002,0.0565 0.004,0.11304 0.007,0.16946 0.003,0.0565 0.005,0.11304 0.008,0.16948 0.003,0.0564 0.006,0.11278 0.01,0.16907 0.003,0.0564 0.007,0.11262 0.011,0.16888 0.004,0.0562 0.008,0.11222 0.0128,0.16828 0.004,0.0561 0.009,0.11224 0.0137,0.16828 0.005,0.0559 0.0104,0.11171 0.016,0.16749 0.005,0.0559 0.011,0.11173 0.0169,0.1675 0.006,0.0559 0.0122,0.11172 0.0188,0.16749 0.006,0.0556 0.0132,0.1112 0.0202,0.16671 0.007,0.0554 0.0141,0.11068 0.0216,0.1659 0.007,0.0553 0.0151,0.11057 0.023,0.16572 0.008,0.0553 0.0163,0.11055 0.0249,0.16571 0.008,0.0551 0.0169,0.11014 0.0257,0.16512 0.009,0.0548 0.0185,0.10964 0.028,0.16432 0.009,0.0548 0.019,0.10962 0.0289,0.16433 0.01,0.0546 0.02,0.10911 0.0303,0.16353 0.0104,0.0543 0.0211,0.10872 0.032,0.16295 0.0109,0.0543 0.0221,0.10858 0.0336,0.16274 0.0114,0.054 0.0231,0.10806 0.0349,0.16194 0.012,0.0539 0.0242,0.10767 0.0367,0.16135 0.0123,0.0538 0.0249,0.10739 0.0378,0.16096 0.0128,0.0535 0.0259,0.10688 0.0392,0.16015 0.0133,0.0534 0.0269,0.10674 0.0407,0.15997 0.0139,0.0531 0.0282,0.1061 0.0426,0.15897 0.0144,0.053 0.029,0.10582 0.0438,0.15857 0.0147,0.0528 0.0297,0.10558 0.045,0.15819 0.0152,0.0524 0.0308,0.10474 0.0466,0.15698 0.0157,0.0523 0.0318,0.10466 0.0481,0.15679 0.0163,0.0521 0.0328,0.10409 0.0495,0.15599 0.0167,0.0519 0.0336,0.10359 0.0508,0.1552 0.0171,0.0516 0.0346,0.10309 0.0522,0.15441 0.0178,0.0514 0.0357,0.10266 0.054,0.15381 0.0182,0.0511 0.0366,0.10216 0.0553,0.15301 0.0186,0.051 0.0374,0.10187 0.0565,0.15262 0.0191,0.0506 0.0385,0.1011 0.0581,0.15143 0.0195,0.0505 0.0393,0.10081 0.0592,0.15102 0.0201,0.05 0.0403,0.10004 0.0609,0.14985 0.0205,0.0499 0.0411,0.0997 0.062,0.14944 0.021,0.0495 0.0422,0.099 0.0636,0.14824 0.0213,0.0494 0.043,0.0987 0.0648,0.14785 0.0219,0.049 0.044,0.0979 0.0664,0.14665 0.0224,0.0488 0.0449,0.0974 0.0678,0.14587 0.0227,0.0486 0.0457,0.0971 0.0689,0.14547 0.0233,0.0482 0.0468,0.0963 0.0705,0.14427 0.0236,0.0479 0.0475,0.0956 0.0716,0.14327 0.0242,0.0477 0.0487,0.0953 0.0733,0.14268 0.0247,0.0472 0.0495,0.0944 0.0746,0.1413 0.0249,0.047 0.05,0.094 0.0754,0.14069 0.0256,0.0467 0.0513,0.0933 0.0773,0.13971 0.0259,0.0463 0.052,0.0926 0.0784,0.1387 0.0264,0.0461 0.0529,0.0921 0.0798,0.1379 0.0268,0.0457 0.0538,0.0912 0.081,0.1365 0.0272,0.0455 0.0546,0.0909 0.0822,0.13615 0.0276,0.045 0.0554,0.09 0.0834,0.13473 0.0281,0.0449 0.0563,0.0894 0.0848,0.13396 0.0286,0.0444 0.0574,0.0887 0.0864,0.13276 0.029,0.0441 0.0581,0.088 0.0875,0.13171 0.0293,0.0438 0.0588,0.0873 0.0885,0.13073 0.0298,0.0433 0.0598,0.0865 0.0901,0.12952 0.0301,0.0432 0.0604,0.0861 0.0909,0.12896 0.0307,0.0426 0.0617,0.0851 0.0928,0.12735 0.0309,0.0424 0.062,0.0845 0.0932,0.12658 0.0314,0.042 0.063,0.0838 0.0948,0.12538 0.032,0.0417 0.0641,0.083 0.0965,0.12419 0.0322,0.0412 0.0646,0.0822 0.0971,0.123 0.0327,0.0409 0.0655,0.0817 0.0985,0.12223 0.0329,0.0404 0.0661,0.0806 0.0994,0.12062 0.0334,0.0401 0.067,0.08 0.10081,0.11984 0.0337,0.0398 0.0677,0.0794 0.10188,0.11879 0.0342,0.0393 0.0685,0.0785 0.10315,0.11739 0.0346,0.0389 0.0694,0.0775 0.10438,0.11606 0.0349,0.0385 0.0701,0.0769 0.10544,0.115 0.0354,0.0381 0.0709,0.076 0.10672,0.11362 0.0356,0.0377 0.0714,0.0751 0.10739,0.11243 0.0361,0.0374 0.0723,0.0746 0.10878,0.11164 0.0365,0.0369 0.0732,0.0737 0.11004,0.11026 0.0368,0.0364 0.0738,0.0726 0.11097,0.10864 0.0372,0.0361 0.0745,0.072 0.112,0.10767 0.0376,0.0356 0.0753,0.071 0.11326,0.10627 0.0378,0.0352 0.0758,0.0702 0.11394,0.10508 0.0384,0.0348 0.0769,0.0695 0.11557,0.1039 0.0385,0.0344 0.0771,0.0686 0.1159,0.1025 0.039,0.034 0.0782,0.0677 0.11751,0.1013 0.0393,0.0335 0.0788,0.0667 0.11844,0.0997 0.0395,0.033 0.0793,0.0659 0.11912,0.0985 0.04,0.0328 0.0802,0.0653 0.1205,0.0978 0.0401,0.0324 0.0807,0.0639 0.12131,0.0955 0.0406,0.0318 0.0812,0.0635 0.12214,0.0949 0.0411,0.0311 0.0822,0.0623 0.12361,0.0932 0.041,0.0311 0.0825,0.0613 0.12395,0.0918 0.0415,0.0305 0.0833,0.0604 0.12521,0.0904 0.042,0.0298 0.084,0.0598 0.12629,0.0893 0.0424,0.0291 0.0847,0.0587 0.12717,0.0878 0.0423,0.0291 0.0847,0.0581 0.1275,0.0864 0.043,0.0285 0.0859,0.057 0.12912,0.0852 0.0432,0.0277 0.0865,0.0556 0.12978,0.0833 0.0433,0.0278 0.0869,0.0548 0.13058,0.0819 0.0342,0.0207 0.0681,0.0421 0.10233,0.0628 l 0.58831,0.33966 84.32639,48.68586 0.42892,0.24764 c 0.0323,0.0178 0.0645,0.0354 0.0968,0.0531 0.0449,0.025 0.0901,0.0493 0.135802,0.0729 0.0453,0.0243 0.0912,0.048 0.13695,0.0717 0.0456,0.0236 0.0914,0.0472 0.1374,0.0701 0.046,0.0229 0.0921,0.0457 0.1382,0.0687 0.046,0.0229 0.0926,0.0451 0.13913,0.0671 0.0464,0.0222 0.0931,0.0442 0.13981,0.0659 0.0468,0.0214 0.0935,0.0429 0.14039,0.0641 0.0472,0.0208 0.0941,0.0419 0.14131,0.0625 0.0472,0.0208 0.0945,0.0412 0.142,0.0613 0.0474,0.02 0.0949,0.0399 0.14256,0.0595 0.0475,0.02 0.0954,0.0392 0.14326,0.0584 0.0478,0.0193 0.0958,0.0379 0.14386,0.0564 0.0482,0.0185 0.0962,0.0372 0.14456,0.0553 0.0483,0.0182 0.0969,0.0361 0.14544,0.0538 0.0485,0.0175 0.097,0.0347 0.14569,0.0517 0.0489,0.0172 0.0977,0.034 0.14674,0.0507 0.0489,0.0165 0.0979,0.0328 0.14693,0.0488 0.0491,0.0161 0.0983,0.0319 0.14764,0.0475 0.0494,0.0156 0.0989,0.0309 0.14856,0.0459 0.0495,0.0149 0.0991,0.0296 0.14881,0.0439 0.0497,0.0145 0.0996,0.0287 0.14948,0.0427 0.0498,0.014 0.0998,0.0279 0.14982,0.0413 0.0501,0.0134 0.10015,0.0266 0.15039,0.0396 0.0503,0.0129 0.1008,0.0255 0.15132,0.038 0.0503,0.0124 0.10078,0.0246 0.1513,0.0364 0.0507,0.0118 0.10142,0.0234 0.15223,0.0348 0.0506,0.0113 0.1014,0.0224 0.15222,0.0332 0.0509,0.0109 0.10188,0.0216 0.15289,0.032 0.0511,0.0103 0.10227,0.0204 0.15349,0.0303 0.0511,0.01 0.1024,0.0191 0.15371,0.0282 0.0514,0.009 0.10288,0.0182 0.15438,0.0271 0.0515,0.009 0.10287,0.0173 0.15443,0.0254 0.0516,0.008 0.10323,0.016 0.15495,0.0237 0.0517,0.008 0.1035,0.0151 0.15533,0.0222 0.0519,0.007 0.10387,0.0139 0.15591,0.0204 0.052,0.006 0.10407,0.013 0.15625,0.019 0.0521,0.006 0.10426,0.0116 0.15647,0.017 0.0521,0.006 0.10435,0.0109 0.15658,0.016 0.0524,0.005 0.10488,0.009 0.15738,0.0138 0.0523,0.005 0.1047,0.009 0.15713,0.0127 0.0525,0.004 0.10513,0.007 0.15772,0.0109 0.0525,0.003 0.10509,0.006 0.1577,0.009 0.0527,0.002 0.10547,0.006 0.15829,0.007 0.0528,0.002 0.10571,0.004 0.1586,0.006 0.0528,0.002 0.10571,0.003 0.15861,0.005 0.0529,0.002 0.10572,0.002 0.15863,0.003 0.053,6.7e-4 0.1061,8e-4 0.15921,8e-4 0.0531,1.3e-4 0.10608,-2e-5 0.1592,-5e-4 0.0531,-3.6e-4 0.10633,-8e-4 0.15954,-0.002 0.0531,-8e-4 0.10632,-0.002 0.15953,-0.003 0.0531,-0.002 0.1065,-0.003 0.15977,-0.006 0.0531,-0.002 0.10632,-0.004 0.15953,-0.006 0.0533,-0.002 0.10672,-0.006 0.1601,-0.008 0.0534,-0.003 0.1067,-0.006 0.16009,-0.01 0.0534,-0.003 0.10673,-0.007 0.16009,-0.0116 0.0534,-0.004 0.10673,-0.009 0.16009,-0.0132 0.0535,-0.005 0.10709,-0.01 0.16067,-0.015 0.0533,-0.005 0.10672,-0.0107 0.16009,-0.0165 0.0535,-0.006 0.10692,-0.0116 0.16043,-0.0178 0.0534,-0.006 0.10687,-0.0131 0.16031,-0.02 0.0535,-0.006 0.10697,-0.0138 0.16042,-0.021 0.0534,-0.007 0.10689,-0.0153 0.16031,-0.0232 0.0534,-0.008 0.1067,-0.016 0.16006,-0.0244 0.0535,-0.008 0.10712,-0.0172 0.16065,-0.0262 0.0534,-0.009 0.1067,-0.0181 0.16006,-0.0276 0.0534,-0.009 0.10673,-0.0192 0.16006,-0.0292 0.0534,-0.0101 0.10687,-0.0206 0.16029,-0.0312 0.0534,-0.0105 0.10673,-0.0213 0.16005,-0.0324 0.0532,-0.0111 0.10648,-0.0225 0.15971,-0.0342 0.0532,-0.0116 0.10633,-0.0234 0.15948,-0.0354 0.0533,-0.0121 0.10645,-0.0246 0.15969,-0.0373 0.0532,-0.0125 0.10636,-0.0254 0.15946,-0.0385 0.0531,-0.0133 0.10626,-0.0269 0.15935,-0.0408 0.053,-0.0136 0.10594,-0.0275 0.15889,-0.0416 0.053,-0.0142 0.10612,-0.0287 0.15911,-0.0436 0.0528,-0.0148 0.10575,-0.0297 0.15852,-0.0449 0.0529,-0.0153 0.10574,-0.0308 0.15853,-0.0466 0.0528,-0.0159 0.10549,-0.0319 0.15818,-0.0483 0.0528,-0.0163 0.10553,-0.033 0.15818,-0.0499 0.0526,-0.0166 0.1052,-0.0336 0.15771,-0.0507 0.0524,-0.0174 0.10484,-0.0352 0.15724,-0.0531 0.0525,-0.0178 0.10494,-0.0358 0.15736,-0.0541 0.0523,-0.0185 0.1045,-0.0372 0.15666,-0.0561 0.0523,-0.0188 0.1046,-0.0378 0.15678,-0.0571 0.0521,-0.0194 0.10415,-0.0391 0.15608,-0.0591 0.052,-0.0198 0.10398,-0.04 0.15584,-0.0603 0.0518,-0.0203 0.10359,-0.0409 0.15528,-0.0617 0.0518,-0.0209 0.10355,-0.042 0.15526,-0.0632 0.0515,-0.0215 0.10312,-0.0433 0.15457,-0.0653 0.0515,-0.0219 0.10293,-0.0441 0.15433,-0.0665 0.0515,-0.0223 0.10276,-0.0449 0.1541,-0.0677 0.0511,-0.0229 0.10223,-0.0459 0.15318,-0.0693 0.0511,-0.0234 0.10221,-0.0469 0.15317,-0.0709 0.0509,-0.0238 0.10175,-0.0479 0.15259,-0.0722 0.0507,-0.0243 0.10144,-0.0489 0.15202,-0.0737 0.0506,-0.0248 0.10105,-0.0498 0.15143,-0.075 0.0504,-0.0254 0.10081,-0.051 0.1511,-0.0768 0.0502,-0.0259 0.10042,-0.0519 0.1505,-0.0783 0.0502,-0.0263 0.10024,-0.0527 0.15028,-0.0795 0.0499,-0.0268 0.0996,-0.0538 0.14934,-0.081 0.0498,-0.0271 0.0995,-0.0546 0.14912,-0.0822 0.0495,-0.0277 0.0989,-0.0557 0.14818,-0.0838 0.0494,-0.0281 0.0988,-0.0564 0.14795,-0.0851 0.049,-0.0286 0.0981,-0.0575 0.14704,-0.0866 0.049,-0.029 0.0979,-0.0583 0.14679,-0.0878 0.0487,-0.0296 0.0974,-0.0593 0.14586,-0.0894 0.0486,-0.03 0.0969,-0.0604 0.14529,-0.0908 0.0484,-0.0304 0.0968,-0.0612 0.14508,-0.092 0.0482,-0.0309 0.0961,-0.0622 0.14413,-0.0936 0.0478,-0.0313 0.0956,-0.0628 0.14333,-0.0946 0.0476,-0.032 0.0952,-0.0642 0.14256,-0.0967 0.0475,-0.0323 0.0948,-0.0647 0.14216,-0.0974 0.0473,-0.0326 0.0943,-0.0654 0.14135,-0.0984 0.047,-0.0332 0.0939,-0.0667 0.14064,-0.1004 0.0467,-0.0336 0.0933,-0.0674 0.13991,-0.10137 0.0466,-0.034 0.093,-0.0683 0.13926,-0.10281 0.0461,-0.0344 0.0922,-0.0691 0.13809,-0.104 0.0461,-0.0348 0.092,-0.0699 0.13785,-0.10521 0.0458,-0.0352 0.0913,-0.0707 0.1367,-0.1064 0.0454,-0.0358 0.0907,-0.0718 0.13584,-0.10797 0.0453,-0.0362 0.0905,-0.0726 0.13552,-0.1092 0.045,-0.0366 0.0897,-0.0734 0.13445,-0.11036 0.0447,-0.0369 0.0893,-0.074 0.13362,-0.11137 0.0443,-0.0374 0.0886,-0.0751 0.13263,-0.11301 0.0441,-0.0378 0.088,-0.0758 0.13188,-0.11396 0.0439,-0.0383 0.0877,-0.0767 0.13131,-0.11536 0.0435,-0.0384 0.087,-0.0771 0.13025,-0.11596 0.0433,-0.039 0.0864,-0.0782 0.12933,-0.11756 0.0429,-0.0394 0.0856,-0.079 0.12816,-0.11877 0.0427,-0.0399 0.0852,-0.0799 0.12759,-0.12016 0.0423,-0.0401 0.0845,-0.0803 0.12654,-0.12076 0.0421,-0.0406 0.0839,-0.0814 0.12561,-0.12237 0.0418,-0.0409 0.0834,-0.082 0.1248,-0.12336 0.0415,-0.0413 0.0828,-0.0827 0.12399,-0.12437 0.041,-0.0417 0.0818,-0.0836 0.12247,-0.12576 0.0408,-0.0421 0.0815,-0.0842 0.12208,-0.12653 0.0405,-0.0424 0.0807,-0.085 0.12086,-0.12777 0.04,-0.0428 0.08,-0.0858 0.11975,-0.12892 0.0397,-0.0429 0.0792,-0.0862 0.11872,-0.12954 0.0395,-0.0435 0.0789,-0.0871 0.11807,-0.13096 0.0391,-0.0439 0.0781,-0.0879 0.11698,-0.13213 0.0387,-0.0441 0.0772,-0.0885 0.11558,-0.13293 0.0384,-0.0445 0.0767,-0.0891 0.11478,-0.13394 0.038,-0.0449 0.0759,-0.0899 0.11361,-0.13513 0.0377,-0.0451 0.0752,-0.0903 0.11256,-0.13573 0.0374,-0.0456 0.0746,-0.0914 0.11164,-0.13733 0.037,-0.0457 0.0738,-0.0915 0.11037,-0.13754 0.0367,-0.0462 0.0731,-0.0926 0.10944,-0.13915 0.0362,-0.0465 0.0722,-0.0931 0.10804,-0.13993 0.0361,-0.0466 0.0715,-0.0935 0.107,-0.14055 0.0356,-0.0472 0.0711,-0.0945 0.10642,-0.14193 0.0356,-0.047 0.0699,-0.0949 0.10445,-0.14255 0.0349,-0.0476 0.0694,-0.0955 0.10406,-0.14331 0.0342,-0.048 0.0684,-0.0961 0.10225,-0.14435 0.0343,-0.0482 0.0678,-0.0967 0.10144,-0.14535 0.0336,-0.0486 0.0669,-0.0973 0.10011,-0.14611 0.0336,-0.0486 0.0664,-0.0979 0.0992,-0.14715 0.0329,-0.049 0.0658,-0.0979 0.0976,-0.14755 0.0323,-0.0495 0.0653,-0.0986 0.0969,-0.14852 0.0323,-0.0496 0.0641,-0.0997 0.0957,-0.14973 0.0316,-0.0499 0.0632,-0.0998 0.0941,-0.15011 0.0316,-0.0499 0.0624,-0.10021 0.0934,-0.15052 0.031,-0.0504 0.0612,-0.10128 0.0922,-0.15173 0.0302,-0.0507 0.0604,-0.10142 0.0906,-0.15213 0.0301,-0.0509 0.0598,-0.1021 0.0894,-0.15334 0.01,-0.0166 0.0192,-0.0332 0.0287,-0.0498 0.0295,-0.0513 0.0586,-0.10279 0.0874,-0.15454 0.029,-0.0514 0.0576,-0.10302 0.0857,-0.15494 0.0289,-0.0516 0.0571,-0.1037 0.0853,-0.15573 0.0281,-0.0519 0.0556,-0.10424 0.0837,-0.15614 0.0275,-0.0524 0.055,-0.10491 0.0825,-0.15735 0.0275,-0.0523 0.0542,-0.10504 0.0812,-0.15754 0.0266,-0.0527 0.0533,-0.10519 0.0797,-0.15791 0.0261,-0.0531 0.0527,-0.10586 0.0788,-0.15895 0.026,-0.0531 0.0517,-0.10612 0.0772,-0.15933 0.0253,-0.0535 0.0507,-0.10667 0.0759,-0.16011 0.0253,-0.0535 0.0501,-0.10704 0.0747,-0.16077 0.0245,-0.0537 0.049,-0.10733 0.0732,-0.16112 0.0238,-0.0541 0.0484,-0.1077 0.0721,-0.16177 0.0238,-0.0541 0.0474,-0.10827 0.0708,-0.16253 0.023,-0.0543 0.0466,-0.1084 0.0695,-0.16273 0.0222,-0.0546 0.0452,-0.10882 0.0675,-0.16334 0.0222,-0.0546 0.0447,-0.10911 0.0668,-0.16375 0.022,-0.0546 0.0437,-0.10931 0.0652,-0.16413 0.0215,-0.0549 0.0428,-0.1099 0.0638,-0.16495 0.0209,-0.055 0.0417,-0.11015 0.0622,-0.16535 0.0207,-0.0551 0.0411,-0.11017 0.0613,-0.16536 0.0201,-0.0554 0.04,-0.11081 0.0596,-0.16631 0.0196,-0.0553 0.039,-0.11069 0.058,-0.16617 0.0193,-0.0556 0.0382,-0.11113 0.0571,-0.16672 0.0186,-0.0559 0.0371,-0.11178 0.0553,-0.16774 0.0183,-0.0557 0.0363,-0.11152 0.0541,-0.16738 0.0177,-0.0558 0.0352,-0.11177 0.0525,-0.16773 0.0173,-0.0561 0.0344,-0.11231 0.0511,-0.16858 0.0169,-0.0562 0.0335,-0.11249 0.0499,-0.16874 0.0163,-0.0562 0.0325,-0.11232 0.0483,-0.16859 0.0158,-0.0565 0.0313,-0.11301 0.0466,-0.1696 0.0155,-0.0564 0.0306,-0.11271 0.0455,-0.16916 0.0149,-0.0567 0.0296,-0.11327 0.0441,-0.16996 0.0144,-0.0566 0.0287,-0.11311 0.0426,-0.16977 0.0139,-0.0568 0.0277,-0.11367 0.0412,-0.17057 0.0135,-0.0567 0.0266,-0.11358 0.0396,-0.17037 0.0128,-0.0568 0.0255,-0.11354 0.0379,-0.17039 0.0125,-0.057 0.0247,-0.11397 0.0368,-0.17098 0.0119,-0.057 0.0236,-0.11393 0.0349,-0.17099 0.0115,-0.057 0.0227,-0.11411 0.0336,-0.17119 0.0111,-0.0571 0.0219,-0.11421 0.0324,-0.1714 0.0106,-0.057 0.0209,-0.11408 0.0309,-0.1712 0.01,-0.0572 0.0198,-0.11438 0.0294,-0.17157 0.009,-0.0572 0.0189,-0.11451 0.028,-0.17181 0.009,-0.0572 0.0177,-0.11455 0.0263,-0.17177 0.008,-0.0572 0.0167,-0.11439 0.0247,-0.17158 l 8e-4,-0.0116 0.0832,-0.67626 8.1e-4,-0.0128 14.14782,-115.42319 c 0.39131,-3.01212 0.923,-5.78669 3.15865,-9.80524 l 13.01871,-22.549055 1.28573,0.742319 c 0.37227,0.214933 0.87116,0.04335 1.11823,-0.384574 l 1.26513,-2.191268 c 0.24706,-0.427931 0.14598,-0.945372 -0.22629,-1.160305 z" />
    <path
       style="color:#000000;font-style:normal;font-variant:normal;font-weight:normal;font-stretch:normal;font-size:medium;line-height:normal;font-family:sans-serif;font-variant-ligatures:normal;font-variant-position:normal;font-variant-caps:normal;font-variant-numeric:normal;font-variant-alternates:normal;font-variant-east-asian:normal;font-feature-settings:normal;font-variation-settings:normal;text-indent:0;text-align:start;text-decoration:none;text-decoration-line:none;text-decoration-style:solid;text-decoration-color:#000000;letter-spacing:normal;word-spacing:normal;text-transform:none;writing-mode:lr-tb;direction:ltr;text-orientation:mixed;dominant-baseline:auto;baseline-shift:baseline;text-anchor:start;white-space:normal;shape-padding:0;shape-margin:0;inline-size:0;clip-rule:nonzero;display:inline;overflow:visible;visibility:visible;opacity:1;isolation:auto;mix-blend-mode:normal;color-interpolation:sRGB;color-interpolation-filters:linearRGB;solid-color:#000000;solid-opacity:1;vector-effect:none;fill:#00ffff;fill-opacity:1;fill-rule:evenodd;stroke:none;stroke-width:0.173378;stroke-linecap:round;stroke-linejoin:round;stroke-miterlimit:4;stroke-dasharray:none;stroke-dashoffset:0;stroke-opacity:1;paint-order:normal;color-rendering:auto;image-rendering:auto;shape-rendering:auto;text-rendering:auto;enable-background:accumulate;stop-color:#000000;stop-opacity:1"
       d="m 186.92776,48.784734 c -0.17843,0.302849 0.0567,0.681472 0.40728,0.655867 2.37651,-0.173278 2.8068,-0.09579 3.69549,0.06352 1.48329,0.265903 2.0233,1.33199 2.4498,2.187285 0.42649,0.855296 1.13612,1.4586 2.12311,1.867626 2.23585,0.92658 4.72776,0.501877 5.91462,-1.553834 1.18641,-2.054922 0.41352,-4.596807 -1.55714,-5.869599 -1.53738,-0.992915 -3.83176,-1.152774 -5.0389,-1.032339 -1.16894,0.116626 -1.93148,0.244268 -2.80612,0.478474 -0.76443,0.204692 -1.63689,0.642423 -2.57493,1.166403 -0.92548,0.516959 -1.77498,1.272528 -2.52503,1.929927 -0.0349,0.03065 -0.0646,0.06661 -0.0882,0.106671 z"
       id="path1514-6" />
    <path
       style="color:#000000;font-style:normal;font-variant:normal;font-weight:normal;font-stretch:normal;font-size:medium;line-height:normal;font-family:sans-serif;font-variant-ligatures:normal;font-variant-position:normal;font-variant-caps:normal;font-variant-numeric:normal;font-variant-alternates:normal;font-variant-east-asian:normal;font-feature-settings:normal;font-variation-settings:normal;text-indent:0;text-align:start;text-decoration:none;text-decoration-line:none;text-decoration-style:solid;text-decoration-color:#000000;letter-spacing:normal;word-spacing:normal;text-transform:none;writing-mode:lr-tb;direction:ltr;text-orientation:mixed;dominant-baseline:auto;baseline-shift:baseline;text-anchor:start;white-space:normal;shape-padding:0;shape-margin:0;inline-size:0;clip-rule:nonzero;display:inline;overflow:visible;visibility:visible;isolation:auto;mix-blend-mode:normal;color-interpolation:sRGB;color-interpolation-filters:linearRGB;solid-color:#000000;solid-opacity:1;vector-effect:none;fill:#0000ff;fill-opacity:1;fill-rule:evenodd;stroke:none;stroke-width:0.215959;stroke-linecap:round;stroke-linejoin:round;stroke-miterlimit:4;stroke-dasharray:none;stroke-dashoffset:0;stroke-opacity:1;paint-order:normal;color-rendering:auto;image-rendering:auto;shape-rendering:auto;text-rendering:auto;enable-background:accumulate;stop-color:#000000"
       d="m 158.73359,43.820103 c 0.19957,0.06556 0.45318,-0.118495 0.59559,-0.432289 0.25693,-0.56693 0.4737,-0.994634 0.73809,-1.52466 1.81574,-3.640034 2.07335,-3.381431 3.35578,-4.827674 1.28242,-1.446244 3.66578,-4.629571 4.41739,-6.426964 1.49088,-3.565177 0.54017,-7.144845 -1.64481,-7.872731 -2.18486,-0.727856 -5.19263,1.532123 -6.27626,5.231626 -0.52452,1.79068 -0.29034,3.232131 -0.2031,5.157802 0.0872,1.925705 0.0704,4.397848 -0.79958,8.354037 -0.12664,0.576002 -0.22621,1.04306 -0.38198,1.643847 -0.0864,0.333965 -10e-4,0.631298 0.19902,0.696954 z m 1.32214,-3.742198 c 1.60443,3.287538 0.80222,1.643766 0,0 z"
       id="path1514-1-6" />
    <path
       style="color:#000000;font-style:normal;font-variant:normal;font-weight:normal;font-stretch:normal;font-size:medium;line-height:normal;font-family:sans-serif;font-variant-ligatures:normal;font-variant-position:normal;font-variant-caps:normal;font-variant-numeric:normal;font-variant-alternates:normal;font-variant-east-asian:normal;font-feature-settings:normal;font-variation-settings:normal;text-indent:0;text-align:start;text-decoration:none;text-decoration-line:none;text-decoration-style:solid;text-decoration-color:#000000;letter-spacing:normal;word-spacing:normal;text-transform:none;writing-mode:lr-tb;direction:ltr;text-orientation:mixed;dominant-baseline:auto;baseline-shift:baseline;text-anchor:start;white-space:normal;shape-padding:0;shape-margin:0;inline-size:0;clip-rule:nonzero;display:inline;overflow:visible;visibility:visible;isolation:auto;mix-blend-mode:normal;color-interpolation:sRGB;color-interpolation-filters:linearRGB;solid-color:#000000;solid-opacity:1;vector-effect:none;fill:#ff0000;fill-opacity:1;fill-rule:evenodd;stroke:none;stroke-width:0.235758;stroke-linecap:round;stroke-linejoin:round;stroke-miterlimit:4;stroke-dasharray:none;stroke-dashoffset:0;stroke-opacity:1;paint-order:normal;color-rendering:auto;image-rendering:auto;shape-rendering:auto;text-rendering:auto;enable-background:accumulate;stop-color:#000000"
       d="m 112.40377,40.521586 c 0.006,0.35149 -0.72083,0.561822 -1.25855,0.364357 -3.64534,-1.338318 -4.78433,-2.06741 -6.35468,-2.373791 -2.62105,-0.511366 -3.99376,-0.171896 -5.467457,0.355561 -1.47366,0.527463 -2.94535,1.33581 -5.22573,1.450693 -4.45583,0.224458 -8.034627,-1.929241 -8.034608,-4.302969 0,-2.37282 3.587648,-4.187712 7.920018,-4.304652 3.3798,-0.0912 7.201617,0.917548 9.023267,1.625418 1.76402,0.685471 2.86708,1.177282 4.05113,1.817431 1.03485,0.559483 2.02723,1.374799 3.0449,2.297599 1.00405,0.91044 1.66582,1.989532 2.25912,2.933881 0.0276,0.04399 0.0418,0.08999 0.0425,0.13648 z"
       id="path1514-6-2" />
    <path
       style="color:#000000;font-style:normal;font-variant:normal;font-weight:normal;font-stretch:normal;font-size:medium;line-height:normal;font-family:sans-serif;font-variant-ligatures:normal;font-variant-position:normal;font-variant-caps:normal;font-variant-numeric:normal;font-variant-alternates:normal;font-variant-east-asian:normal;font-feature-settings:normal;font-variation-settings:normal;text-indent:0;text-align:start;text-decoration:none;text-decoration-line:none;text-decoration-style:solid;text-decoration-color:#000000;letter-spacing:normal;word-spacing:normal;text-transform:none;writing-mode:lr-tb;direction:ltr;text-orientation:mixed;dominant-baseline:auto;baseline-shift:baseline;text-anchor:start;white-space:normal;shape-padding:0;shape-margin:0;inline-size:0;clip-rule:nonzero;display:inline;overflow:visible;visibility:visible;isolation:auto;mix-blend-mode:normal;color-interpolation:sRGB;color-interpolation-filters:linearRGB;solid-color:#000000;solid-opacity:1;vector-effect:none;fill:#ffff00;fill-opacity:1;fill-rule:evenodd;stroke:none;stroke-width:0.168169;stroke-linecap:round;stroke-linejoin:round;stroke-miterlimit:4;stroke-dasharray:none;stroke-dashoffset:0;stroke-opacity:1;paint-order:normal;color-rendering:auto;image-rendering:auto;shape-rendering:auto;text-rendering:auto;enable-background:accumulate;stop-color:#000000"
       d="m 165.36706,72.07505 c 0.15382,0.142941 0.38924,0.151323 0.55284,0.01968 0.29524,-0.238057 0.53683,-0.406066 0.8327,-0.616431 2.03197,-1.444717 3.57486,-1.913666 4.84214,-2.205298 1.26728,-0.291631 2.32619,-0.388513 3.21069,-1.174862 1.75444,-1.55973 1.50921,-4.357825 -0.1735,-5.929262 -1.68268,-1.571378 -4.486,-1.620916 -5.92659,0.230843 -0.69731,0.896307 -0.72042,1.94822 -0.93634,3.239915 -0.21595,1.291689 -0.59866,2.885152 -1.90243,5.010762 -0.18986,0.309463 -0.34115,0.562018 -0.55852,0.872914 -0.12066,0.172917 -0.0954,0.408319 0.0591,0.551767 z m 1.64253,-1.759362 c 0.82477,2.937843 0.41239,1.468922 0,0 z"
       id="path1514-1-6-9" />
    <path
       style="color:#000000;font-style:normal;font-variant:normal;font-weight:normal;font-stretch:normal;font-size:medium;line-height:normal;font-family:sans-serif;font-variant-ligatures:normal;font-variant-position:normal;font-variant-caps:normal;font-variant-numeric:normal;font-variant-alternates:normal;font-variant-east-asian:normal;font-feature-settings:normal;font-variation-settings:normal;text-indent:0;text-align:start;text-decoration:none;text-decoration-line:none;text-decoration-style:solid;text-decoration-color:#000000;letter-spacing:normal;word-spacing:normal;text-transform:none;writing-mode:lr-tb;direction:ltr;text-orientation:mixed;dominant-baseline:auto;baseline-shift:baseline;text-anchor:start;white-space:normal;shape-padding:0;shape-margin:0;inline-size:0;clip-rule:nonzero;display:inline;overflow:visible;visibility:visible;isolation:auto;mix-blend-mode:normal;color-interpolation:sRGB;color-interpolation-filters:linearRGB;solid-color:#000000;solid-opacity:1;vector-effect:none;fill:#00ff00;fill-opacity:1;fill-rule:evenodd;stroke:none;stroke-width:0.190052;stroke-linecap:round;stroke-linejoin:round;stroke-miterlimit:4;stroke-dasharray:none;stroke-dashoffset:0;stroke-opacity:1;paint-order:normal;color-rendering:auto;image-rendering:auto;shape-rendering:auto;text-rendering:auto;enable-background:accumulate;stop-color:#000000"
       d="m 136.44464,33.56056 c 0.2073,-0.0428 0.35861,-0.273366 0.35531,-0.54152 -0.006,-0.484325 0.01,-0.859586 0.0255,-1.322802 0.10924,-3.181199 0.68761,-5.103721 1.23644,-6.609384 0.54885,-1.505668 1.12325,-2.648538 1.04658,-4.156901 -0.15205,-2.991886 -2.50998,-4.941246 -4.78379,-4.479496 -2.27375,0.461768 -4.03579,3.247131 -3.46049,6.152059 0.27851,1.406074 1.09404,2.255083 1.98025,3.486559 0.88619,1.231503 1.90795,2.867887 2.78337,5.849934 0.12744,0.434189 0.23366,0.78486 0.3453,1.247897 0.0622,0.257304 0.26344,0.416661 0.47157,0.373577 z m -0.3783,-3.035846 c 2.82437,1.475189 1.41219,0.73759 0,0 z"
       id="path1514-1-6-8" />
    <path
       style="color:#000000;font-style:normal;font-variant:normal;font-weight:normal;font-stretch:normal;font-size:medium;line-height:normal;font-family:sans-serif;font-variant-ligatures:normal;font-variant-position:normal;font-variant-caps:normal;font-variant-numeric:normal;font-variant-alternates:normal;font-variant-east-asian:normal;font-feature-settings:normal;font-variation-settings:normal;text-indent:0;text-align:start;text-decoration:none;text-decoration-line:none;text-decoration-style:solid;text-decoration-color:#000000;letter-spacing:normal;word-spacing:normal;text-transform:none;writing-mode:lr-tb;direction:ltr;text-orientation:mixed;dominant-baseline:auto;baseline-shift:baseline;text-anchor:start;white-space:normal;shape-padding:0;shape-margin:0;inline-size:0;clip-rule:nonzero;display:inline;overflow:visible;visibility:visible;isolation:auto;mix-blend-mode:normal;color-interpolation:sRGB;color-interpolation-filters:linearRGB;solid-color:#000000;solid-opacity:1;vector-effect:none;fill:#ff8000;fill-opacity:1;fill-rule:evenodd;stroke:none;stroke-width:0.168169;stroke-linecap:round;stroke-linejoin:round;stroke-miterlimit:4;stroke-dasharray:none;stroke-dashoffset:0;stroke-opacity:1;paint-order:normal;color-rendering:auto;image-rendering:auto;shape-rendering:auto;text-rendering:auto;enable-background:accumulate;stop-color:#000000"
       d="m 189.4527,26.636124 c 0.1647,0.130244 0.40005,0.119853 0.55264,-0.02441 0.27535,-0.26081 0.50278,-0.447523 0.78098,-0.680779 1.91047,-1.601929 3.41112,-2.192248 4.65116,-2.58386 1.24003,-0.391616 2.28787,-0.57251 3.10694,-1.426794 1.62468,-1.694477 1.15747,-4.464146 -0.64508,-5.896619 -1.80246,-1.432399 -4.60082,-1.258561 -5.88939,0.70203 -0.62372,0.948987 -0.91463,2.134947 -1.19892,3.413346 -0.28562,1.284399 -0.27391,2.296652 -1.04049,4.658801 -0.11206,0.345323 -0.22867,0.965774 -0.42061,1.29299 -0.10655,0.181965 -0.0626,0.414615 0.10313,0.545264 z m 1.49722,-1.884566 c 1.05607,2.86284 0.52804,1.431421 0,0 z"
       id="path1514-1-6-3" />
    <path
       style="color:#000000;font-style:normal;font-variant:normal;font-weight:normal;font-stretch:normal;font-size:medium;line-height:normal;font-family:sans-serif;font-variant-ligatures:normal;font-variant-position:normal;font-variant-caps:normal;font-variant-numeric:normal;font-variant-alternates:normal;font-variant-east-asian:normal;font-feature-settings:normal;font-variation-settings:normal;text-indent:0;text-align:start;text-decoration:none;text-decoration-line:none;text-decoration-style:solid;text-decoration-color:#000000;letter-spacing:normal;word-spacing:normal;text-transform:none;writing-mode:lr-tb;direction:ltr;text-orientation:mixed;dominant-baseline:auto;baseline-shift:baseline;text-anchor:start;white-space:normal;shape-padding:0;shape-margin:0;inline-size:0;clip-rule:nonzero;display:inline;overflow:visible;visibility:visible;isolation:auto;mix-blend-mode:normal;color-interpolation:sRGB;color-interpolation-filters:linearRGB;solid-color:#000000;solid-opacity:1;vector-effect:none;fill:#ff00ff;fill-opacity:1;fill-rule:evenodd;stroke:none;stroke-width:0.161084;stroke-linecap:round;stroke-linejoin:round;stroke-miterlimit:4;stroke-dasharray:none;stroke-dashoffset:0;stroke-opacity:1;paint-order:normal;color-rendering:auto;image-rendering:auto;shape-rendering:auto;text-rendering:auto;enable-background:accumulate;stop-color:#000000"
       d="m 191.44883,79.356788 c -0.27431,0.02762 -0.41374,0.478325 -0.24154,0.780718 1.16713,2.050041 1.77428,2.663133 2.06639,3.570103 0.48752,1.513807 0.26925,2.360225 -0.0922,3.283309 -0.36147,0.923075 -0.94206,1.869752 -0.95446,3.236218 -0.0242,2.670051 1.77656,4.608534 3.62778,4.399004 1.85051,-0.20945 3.14445,-2.50352 3.08898,-5.090644 -0.0432,-2.018285 -0.95936,-4.20238 -1.57308,-5.223386 -0.5943,-0.988695 -1.0152,-1.601359 -1.55451,-2.2491 -0.47137,-0.566122 -1.14081,-1.084409 -1.89493,-1.608241 -0.74402,-0.516822 -1.60798,-0.815183 -2.36454,-1.084701 -0.0352,-0.0125 -0.0716,-0.01696 -0.10789,-0.01331 z"
       id="path1514-6-9" />
    <path
       style="color:#000000;font-style:normal;font-variant:normal;font-weight:normal;font-stretch:normal;font-size:medium;line-height:normal;font-family:sans-serif;font-variant-ligatures:normal;font-variant-position:normal;font-variant-caps:normal;font-variant-numeric:normal;font-variant-alternates:normal;font-variant-east-asian:normal;font-feature-settings:normal;font-variation-settings:normal;text-indent:0;text-align:start;text-decoration:none;text-decoration-line:none;text-decoration-style:solid;text-decoration-color:#000000;letter-spacing:normal;word-spacing:normal;text-transform:none;writing-mode:lr-tb;direction:ltr;text-orientation:mixed;dominant-baseline:auto;baseline-shift:baseline;text-anchor:start;white-space:normal;shape-padding:0;shape-margin:0;inline-size:0;clip-rule:nonzero;display:inline;overflow:visible;visibility:visible;isolation:auto;mix-blend-mode:normal;color-interpolation:sRGB;color-interpolation-filters:linearRGB;solid-color:#000000;solid-opacity:1;vector-effect:none;fill:#8000ff;fill-opacity:1;fill-rule:evenodd;stroke:none;stroke-width:0.0919493;stroke-linecap:round;stroke-linejoin:round;stroke-miterlimit:4;stroke-dasharray:none;stroke-dashoffset:0;stroke-opacity:1;paint-order:normal;color-rendering:auto;image-rendering:auto;shape-rendering:auto;text-rendering:auto;enable-background:accumulate;stop-color:#000000"
       d="m 144.68264,60.238944 c 0.13981,-0.253384 0.16689,-0.496057 0.22324,-0.719224 0.3878,-1.532556 0.79059,-2.241094 1.19917,-2.901146 0.40856,-0.660049 0.58007,-1.315722 0.7058,-2.059259 0.24939,-1.47483 -0.61054,-2.732523 -1.68889,-2.806705 -1.07829,-0.07418 -2.17211,1.048761 -2.22069,2.53691 -0.0235,0.720317 0.25491,1.53264 0.52508,2.247885 0.27015,0.715264 0.64043,1.35289 0.7195,2.917966 0.0115,0.22786 0.0363,0.412684 0.0236,0.65218 -0.014,0.263511 0.007,0.301154 0.0901,0.338442 0.11591,0.05198 0.34233,-0.06073 0.42306,-0.207049 z"
       id="path1514-1-6-3-7" />
    <path
       style="color:#000000;font-style:normal;font-variant:normal;font-weight:normal;font-stretch:normal;font-size:medium;line-height:normal;font-family:sans-serif;font-variant-ligatures:normal;font-variant-position:normal;font-variant-caps:normal;font-variant-numeric:normal;font-variant-alternates:normal;font-variant-east-asian:normal;font-feature-settings:normal;font-variation-settings:normal;text-indent:0;text-align:start;text-decoration:none;text-decoration-line:none;text-decoration-style:solid;text-decoration-color:#000000;letter-spacing:normal;word-spacing:normal;text-transform:none;writing-mode:lr-tb;direction:ltr;text-orientation:mixed;dominant-baseline:auto;baseline-shift:baseline;text-anchor:start;white-space:normal;shape-padding:0;shape-margin:0;inline-size:0;clip-rule:nonzero;display:inline;overflow:visible;visibility:visible;opacity:1;isolation:auto;mix-blend-mode:normal;color-interpolation:sRGB;color-interpolation-filters:linearRGB;solid-color:#000000;solid-opacity:1;vector-effect:none;fill:#000000;fill-opacity:1;fill-rule:nonzero;stroke:none;stroke-linecap:butt;stroke-linejoin:miter;stroke-miterlimit:4;stroke-dasharray:none;stroke-dashoffset:0;stroke-opacity:1;color-rendering:auto;image-rendering:auto;shape-rendering:auto;text-rendering:auto;enable-background:accumulate;stop-color:#000000;stop-opacity:1"
       d="m 118.36654,56.654688 c -2.5303,-0.182097 -5.10346,0.04192 -7.57813,0.58789 -4.94797,1.091634 -9.54409,3.399834 -13.828123,6.080079 -12.12853,7.588044 -22.208616,18.413792 -28.912109,31.052734 l 0.234374,0.123047 C 74.963906,81.901239 85.313116,71.342157 97.40159,63.779174 c 4.26977,-2.671322 8.57183,-4.671848 13.50693,-5.607268 4.87886,-0.92476 12.48185,0.525201 14.93472,1.732951 2.45287,1.20775 4.71014,2.719894 6.75133,5.352853 1.98253,2.55728 3.82666,6.203978 4.02223,9.506873 l 2.09108,1.340036 c 0.1323,-3.417389 -2.04564,-8.595139 -3.92951,-11.37385 -1.88387,-2.77871 -4.50163,-4.972537 -7.65824,-6.257189 -2.35324,-0.957704 -6.2233,-1.636789 -8.75359,-1.818886 z"
       id="path1800" />
    <path
       style="color:#000000;font-style:normal;font-variant:normal;font-weight:normal;font-stretch:normal;font-size:medium;line-height:normal;font-family:sans-serif;font-variant-ligatures:normal;font-variant-position:normal;font-variant-caps:normal;font-variant-numeric:normal;font-variant-alternates:normal;font-variant-east-asian:normal;font-feature-settings:normal;font-variation-settings:normal;text-indent:0;text-align:start;text-decoration:none;text-decoration-line:none;text-decoration-style:solid;text-decoration-color:#000000;letter-spacing:normal;word-spacing:normal;text-transform:none;writing-mode:lr-tb;direction:ltr;text-orientation:mixed;dominant-baseline:auto;baseline-shift:baseline;text-anchor:start;white-space:normal;shape-padding:0;shape-margin:0;inline-size:0;clip-rule:nonzero;display:inline;overflow:visible;visibility:visible;opacity:1;isolation:auto;mix-blend-mode:normal;color-interpolation:sRGB;color-interpolation-filters:linearRGB;solid-color:#000000;solid-opacity:1;vector-effect:none;fill:#000000;fill-opacity:1;fill-rule:nonzero;stroke:none;stroke-linecap:butt;stroke-linejoin:miter;stroke-miterlimit:4;stroke-dasharray:none;stroke-dashoffset:0;stroke-opacity:1;color-rendering:auto;image-rendering:auto;shape-rendering:auto;text-rendering:auto;enable-background:accumulate;stop-color:#000000;stop-opacity:1"
       d="m 156.60145,86.214474 c 2.90001,-1.662876 5.34013,-2.123238 8.65158,-1.729485 3.95601,0.470394 7.04385,2.179986 9.58111,5.300447 2.54051,3.12446 4.18296,6.609792 5.59385,10.425114 3.37805,9.13486 5.95637,18.42928 6.95013,28.16534 0.70455,6.90263 1.69251,14.31989 1.09259,21.19882 l 0.26507,0.008 c 0.64065,-7.34641 0.14903,-15.05294 -0.6537,-22.40444 -1.01831,-9.32568 -3.45735,-18.39171 -6.70191,-27.1656 -1.41831,-3.835381 -3.50288,-7.668566 -6.10845,-10.873045 -2.60882,-3.208478 -5.93693,-5.658491 -10.08092,-6.151237 -0.86874,-0.103298 -1.562,-0.09511 -2.61524,-0.03125 -2.53195,0.153506 -6.86437,1.194473 -7.7055,2.326672 0.73145,0.327024 1.12575,0.580997 1.73139,0.930664 z"
       id="path1816" />
    <path
       style="color:#000000;font-style:normal;font-variant:normal;font-weight:normal;font-stretch:normal;font-size:medium;line-height:normal;font-family:sans-serif;font-variant-ligatures:normal;font-variant-position:normal;font-variant-caps:normal;font-variant-numeric:normal;font-variant-alternates:normal;font-variant-east-asian:normal;font-feature-settings:normal;font-variation-settings:normal;text-indent:0;text-align:start;text-decoration:none;text-decoration-line:none;text-decoration-style:solid;text-decoration-color:#000000;letter-spacing:normal;word-spacing:normal;text-transform:none;writing-mode:lr-tb;direction:ltr;text-orientation:mixed;dominant-baseline:auto;baseline-shift:baseline;text-anchor:start;white-space:normal;shape-padding:0;shape-margin:0;inline-size:0;clip-rule:nonzero;display:inline;overflow:visible;visibility:visible;opacity:1;isolation:auto;mix-blend-mode:normal;color-interpolation:sRGB;color-interpolation-filters:linearRGB;solid-color:#000000;solid-opacity:1;vector-effect:none;fill:#000000;fill-opacity:1;fill-rule:nonzero;stroke:none;stroke-linecap:butt;stroke-linejoin:miter;stroke-miterlimit:4;stroke-dasharray:none;stroke-dashoffset:0;stroke-opacity:1;color-rendering:auto;image-rendering:auto;shape-rendering:auto;text-rendering:auto;enable-background:accumulate;stop-color:#000000;stop-opacity:1"
       d="m 209.45703,31.613281 c -12.74971,-0.573391 -25.68756,3.026996 -36.13867,10.365235 -9.09518,6.386171 -23.38273,27.146025 -27.40742,37.504948 l 2.59258,1.503125 c 3.96157,-10.196478 18.21046,-30.95473 27.16301,-37.240756 11.75443,-8.253363 25.41547,-11.84524 39.64389,-9.847135 16.01074,2.248399 30.41667,10.49726 39.65833,23.763411 l 0.70898,-0.49414 C 246.29332,43.696897 231.1604,34.398364 214.90234,32.115234 c -1.8059,-0.253604 -3.62392,-0.42004 -5.44531,-0.501953 z"
       id="path1824" />
    <path
       style="color:#000000;font-style:normal;font-variant:normal;font-weight:normal;font-stretch:normal;font-size:medium;line-height:normal;font-family:sans-serif;font-variant-ligatures:normal;font-variant-position:normal;font-variant-caps:normal;font-variant-numeric:normal;font-variant-alternates:normal;font-variant-east-asian:normal;font-feature-settings:normal;font-variation-settings:normal;text-indent:0;text-align:start;text-decoration:none;text-decoration-line:none;text-decoration-style:solid;text-decoration-color:#000000;letter-spacing:normal;word-spacing:normal;text-transform:none;writing-mode:lr-tb;direction:ltr;text-orientation:mixed;dominant-baseline:auto;baseline-shift:baseline;text-anchor:start;white-space:normal;shape-padding:0;shape-margin:0;inline-size:0;clip-rule:nonzero;display:inline;overflow:visible;visibility:visible;opacity:1;isolation:auto;mix-blend-mode:normal;color-interpolation:sRGB;color-interpolation-filters:linearRGB;solid-color:#000000;solid-opacity:1;vector-effect:none;fill:#000000;fill-opacity:1;fill-rule:nonzero;stroke:none;stroke-linecap:butt;stroke-linejoin:miter;stroke-miterlimit:4;stroke-dasharray:none;stroke-dashoffset:0;stroke-opacity:1;color-rendering:auto;image-rendering:auto;shape-rendering:auto;text-rendering:auto;enable-background:accumulate;stop-color:#000000;stop-opacity:1"
       d="m 132.90013,86.626433 c -3.52427,8.473458 -8.87713,16.286037 -14.72825,23.355987 -3.70337,4.47481 -11.80553,12.59905 -16.28033,16.30242 h 4.02489 c 4.50702,-3.73003 9.93009,-10.67706 13.66012,-15.18408 5.89344,-7.12106 10.38906,-15.518376 13.9388,-24.053104 z"
       id="path1832" />
    <path
       style="color:#000000;font-style:normal;font-variant:normal;font-weight:normal;font-stretch:normal;font-size:medium;line-height:normal;font-family:sans-serif;font-variant-ligatures:normal;font-variant-position:normal;font-variant-caps:normal;font-variant-numeric:normal;font-variant-alternates:normal;font-variant-east-asian:normal;font-feature-settings:normal;font-variation-settings:normal;text-indent:0;text-align:start;text-decoration:none;text-decoration-line:none;text-decoration-style:solid;text-decoration-color:#000000;letter-spacing:normal;word-spacing:normal;text-transform:none;writing-mode:lr-tb;direction:ltr;text-orientation:mixed;dominant-baseline:auto;baseline-shift:baseline;text-anchor:start;white-space:normal;shape-padding:0;shape-margin:0;inline-size:0;clip-rule:nonzero;display:inline;overflow:visible;visibility:visible;opacity:1;isolation:auto;mix-blend-mode:normal;color-interpolation:sRGB;color-interpolation-filters:linearRGB;solid-color:#000000;solid-opacity:1;vector-effect:none;fill:#000000;fill-opacity:1;fill-rule:nonzero;stroke:none;stroke-linecap:butt;stroke-linejoin:miter;stroke-miterlimit:4;stroke-dasharray:none;stroke-dashoffset:0;stroke-opacity:1;color-rendering:auto;image-rendering:auto;shape-rendering:auto;text-rendering:auto;enable-background:accumulate;stop-color:#000000;stop-opacity:1"
       d="m 148.79387,93.516859 c -5.13956,6.048625 -8.41298,12.754351 -11.86367,19.902341 -2.19028,4.53708 -3.82642,8.03528 -5.25822,12.86564 h 4.05304 c 1.4216,-4.79594 0.89297,-7.15976 3.06764,-11.66452 3.42603,-7.09689 5.83419,-14.53608 10.93702,-20.541482 z"
       id="path1836" />
    <path
       style="color:#000000;font-style:normal;font-variant:normal;font-weight:normal;font-stretch:normal;font-size:medium;line-height:normal;font-family:sans-serif;font-variant-ligatures:normal;font-variant-position:normal;font-variant-caps:normal;font-variant-numeric:normal;font-variant-alternates:normal;font-variant-east-asian:normal;font-feature-settings:normal;font-variation-settings:normal;text-indent:0;text-align:start;text-decoration:none;text-decoration-line:none;text-decoration-style:solid;text-decoration-color:#000000;letter-spacing:normal;word-spacing:normal;text-transform:none;writing-mode:lr-tb;direction:ltr;text-orientation:mixed;dominant-baseline:auto;baseline-shift:baseline;text-anchor:start;white-space:normal;shape-padding:0;shape-margin:0;inline-size:0;clip-rule:nonzero;display:inline;overflow:visible;visibility:visible;opacity:1;isolation:auto;mix-blend-mode:normal;color-interpolation:sRGB;color-interpolation-filters:linearRGB;solid-color:#000000;solid-opacity:1;vector-effect:none;fill:#000000;fill-opacity:1;fill-rule:nonzero;stroke:none;stroke-linecap:butt;stroke-linejoin:miter;stroke-miterlimit:4;stroke-dasharray:none;stroke-dashoffset:0;stroke-opacity:1;color-rendering:auto;image-rendering:auto;shape-rendering:auto;text-rendering:auto;enable-background:accumulate;stop-color:#000000;stop-opacity:1"
       d="m 140.75987,89.635856 c -0.82251,1.241827 -11.97684,18.808164 -12.7778,20.063994 -4.12259,6.98029 -6.43047,8.40163 -10.59101,16.58499 h 5.19011 c 4.94293,-10.77483 6.45392,-13.93491 10.63023,-21.24021 0.73735,-1.2898 7.44812,-13.637582 8.26852,-14.876222 z"
       id="path1840" />
    <path
       style="color:#000000;font-style:normal;font-variant:normal;font-weight:normal;font-stretch:normal;font-size:medium;line-height:normal;font-family:sans-serif;font-variant-ligatures:normal;font-variant-position:normal;font-variant-caps:normal;font-variant-numeric:normal;font-variant-alternates:normal;font-variant-east-asian:normal;font-feature-settings:normal;font-variation-settings:normal;text-indent:0;text-align:start;text-decoration:none;text-decoration-line:none;text-decoration-style:solid;text-decoration-color:#000000;letter-spacing:normal;word-spacing:normal;text-transform:none;writing-mode:lr-tb;direction:ltr;text-orientation:mixed;dominant-baseline:auto;baseline-shift:baseline;text-anchor:start;white-space:normal;shape-padding:0;shape-margin:0;inline-size:0;clip-rule:nonzero;display:inline;overflow:visible;visibility:visible;opacity:1;isolation:auto;mix-blend-mode:normal;color-interpolation:sRGB;color-interpolation-filters:linearRGB;solid-color:#000000;solid-opacity:1;vector-effect:none;fill:#000000;fill-opacity:1;fill-rule:nonzero;stroke:none;stroke-linecap:butt;stroke-linejoin:miter;stroke-miterlimit:4;stroke-dasharray:none;stroke-dashoffset:0;stroke-opacity:1;color-rendering:auto;image-rendering:auto;shape-rendering:auto;text-rendering:auto;enable-background:accumulate;stop-color:#000000;stop-opacity:1"
       d="m 147.28125,9.1523438 -1.39648,29.3769532 v 0 l 2.06054,-29.3457062 z"
       id="path1858" />
    <path
       style="color:#000000;font-style:normal;font-variant:normal;font-weight:normal;font-stretch:normal;font-size:medium;line-height:normal;font-family:sans-serif;font-variant-ligatures:normal;font-variant-position:normal;font-variant-caps:normal;font-variant-numeric:normal;font-variant-alternates:normal;font-variant-east-asian:normal;font-feature-settings:normal;font-variation-settings:normal;text-indent:0;text-align:start;text-decoration:none;text-decoration-line:none;text-decoration-style:solid;text-decoration-color:#000000;letter-spacing:normal;word-spacing:normal;text-transform:none;writing-mode:lr-tb;direction:ltr;text-orientation:mixed;dominant-baseline:auto;baseline-shift:baseline;text-anchor:start;white-space:normal;shape-padding:0;shape-margin:0;inline-size:0;clip-rule:nonzero;display:inline;overflow:visible;visibility:visible;opacity:1;isolation:auto;mix-blend-mode:normal;color-interpolation:sRGB;color-interpolation-filters:linearRGB;solid-color:#000000;solid-opacity:1;vector-effect:none;fill:#000000;fill-opacity:1;fill-rule:nonzero;stroke:none;stroke-linecap:butt;stroke-linejoin:miter;stroke-miterlimit:4;stroke-dasharray:none;stroke-dashoffset:0;stroke-opacity:1;color-rendering:auto;image-rendering:auto;shape-rendering:auto;text-rendering:auto;enable-background:accumulate;stop-color:#000000;stop-opacity:1"
       d="M 188.7832,3.6796875 174.84766,30.232422 v 0 L 189.46094,4.0351562 Z"
       id="path1860" />
    <path
       style="color:#000000;font-style:normal;font-variant:normal;font-weight:normal;font-stretch:normal;font-size:medium;line-height:normal;font-family:sans-serif;font-variant-ligatures:normal;font-variant-position:normal;font-variant-caps:normal;font-variant-numeric:normal;font-variant-alternates:normal;font-variant-east-asian:normal;font-feature-settings:normal;font-variation-settings:normal;text-indent:0;text-align:start;text-decoration:none;text-decoration-line:none;text-decoration-style:solid;text-decoration-color:#000000;letter-spacing:normal;word-spacing:normal;text-transform:none;writing-mode:lr-tb;direction:ltr;text-orientation:mixed;dominant-baseline:auto;baseline-shift:baseline;text-anchor:start;white-space:normal;shape-padding:0;shape-margin:0;inline-size:0;clip-rule:nonzero;display:inline;overflow:visible;visibility:visible;opacity:1;isolation:auto;mix-blend-mode:normal;color-interpolation:sRGB;color-interpolation-filters:linearRGB;solid-color:#000000;solid-opacity:1;vector-effect:none;fill:#000000;fill-opacity:1;fill-rule:nonzero;stroke:none;stroke-linecap:butt;stroke-linejoin:miter;stroke-miterlimit:4;stroke-dasharray:none;stroke-dashoffset:0;stroke-opacity:1;color-rendering:auto;image-rendering:auto;shape-rendering:auto;text-rendering:auto;enable-background:accumulate;stop-color:#000000;stop-opacity:1"
       d="m 221.22451,57.697489 -42.70303,17.638449 v 0 l 42.28248,-18.428554 z"
       id="path1862" />
    <path
       style="color:#000000;font-style:normal;font-variant:normal;font-weight:normal;font-stretch:normal;font-size:medium;line-height:normal;font-family:sans-serif;font-variant-ligatures:normal;font-variant-position:normal;font-variant-caps:normal;font-variant-numeric:normal;font-variant-alternates:normal;font-variant-east-asian:normal;font-feature-settings:normal;font-variation-settings:normal;text-indent:0;text-align:start;text-decoration:none;text-decoration-line:none;text-decoration-style:solid;text-decoration-color:#000000;letter-spacing:normal;word-spacing:normal;text-transform:none;writing-mode:lr-tb;direction:ltr;text-orientation:mixed;dominant-baseline:auto;baseline-shift:baseline;text-anchor:start;white-space:normal;shape-padding:0;shape-margin:0;inline-size:0;clip-rule:nonzero;display:inline;overflow:visible;visibility:visible;opacity:1;isolation:auto;mix-blend-mode:normal;color-interpolation:sRGB;color-interpolation-filters:linearRGB;solid-color:#000000;solid-opacity:1;vector-effect:none;fill:#000000;fill-opacity:1;fill-rule:nonzero;stroke:none;stroke-linecap:butt;stroke-linejoin:miter;stroke-miterlimit:4;stroke-dasharray:none;stroke-dashoffset:0;stroke-opacity:1;color-rendering:auto;image-rendering:auto;shape-rendering:auto;text-rendering:auto;enable-background:accumulate;stop-color:#000000;stop-opacity:1"
       d="m 102.84766,10.21875 -0.90821,0.730469 27.25196,33.865234 v 0 z"
       id="path1864" />
    <text
       xml:space="preserve"
       style="font-style:normal;font-weight:normal;font-size:10.5833px;line-height:1.25;font-family:sans-serif;fill:#000000;fill-opacity:1;stroke:none;stroke-width:0.264583"
       x="29.633333"
       y="84.666664"
       id="text1888"><tspan
         id="tspan1886"
         x="29.633333"
         y="84.666664"
         style="stroke-width:0.264583" /></text>
    <path
       style="color:#000000;font-style:normal;font-variant:normal;font-weight:normal;font-stretch:normal;font-size:medium;line-height:normal;font-family:sans-serif;font-variant-ligatures:normal;font-variant-position:normal;font-variant-caps:normal;font-variant-numeric:normal;font-variant-alternates:normal;font-variant-east-asian:normal;font-feature-settings:normal;font-variation-settings:normal;text-indent:0;text-align:start;text-decoration:none;text-decoration-line:none;text-decoration-style:solid;text-decoration-color:#000000;letter-spacing:normal;word-spacing:normal;text-transform:none;writing-mode:lr-tb;direction:ltr;text-orientation:mixed;dominant-baseline:auto;baseline-shift:baseline;text-anchor:start;white-space:normal;shape-padding:0;shape-margin:0;inline-size:0;clip-rule:nonzero;display:inline;overflow:visible;visibility:visible;isolation:auto;mix-blend-mode:normal;color-interpolation:sRGB;color-interpolation-filters:linearRGB;solid-color:#000000;solid-opacity:1;vector-effect:none;fill:#0080ff;fill-opacity:1;fill-rule:evenodd;stroke:none;stroke-width:0.0919493;stroke-linecap:round;stroke-linejoin:round;stroke-miterlimit:4;stroke-dasharray:none;stroke-dashoffset:0;stroke-opacity:1;paint-order:normal;color-rendering:auto;image-rendering:auto;shape-rendering:auto;text-rendering:auto;enable-background:accumulate;stop-color:#000000"
       d="m 237.26143,55.555222 c 0.11215,0.153501 0.37084,0.462469 0.57368,0.710502 0.6368,0.899415 0.8103,1.539804 0.86807,2.313933 0.0578,0.774106 0.30504,1.405191 0.64044,2.080515 0.66574,1.339441 2.10099,1.85075 3.01671,1.276466 0.91566,-0.574243 1.13977,-2.125766 0.30374,-3.357842 -0.40471,-0.596339 -1.10763,-1.089549 -1.74683,-1.509071 -0.63917,-0.419557 -1.11577,-0.657309 -2.21361,-1.775543 -0.2102,-0.214095 -0.52162,-0.442078 -0.71916,-0.568107 -0.38717,-0.246989 -0.79928,-0.35579 -1.05624,-0.315348 -0.11587,0.12636 -0.29348,0.287096 0.0122,0.705273 z"
       id="path1514-1-6-3-7-7" />
    <path
       style="color:#000000;font-style:normal;font-variant:normal;font-weight:normal;font-stretch:normal;font-size:medium;line-height:normal;font-family:sans-serif;font-variant-ligatures:normal;font-variant-position:normal;font-variant-caps:normal;font-variant-numeric:normal;font-variant-alternates:normal;font-variant-east-asian:normal;font-feature-settings:normal;font-variation-settings:normal;text-indent:0;text-align:start;text-decoration:none;text-decoration-line:none;text-decoration-style:solid;text-decoration-color:#000000;letter-spacing:normal;word-spacing:normal;text-transform:none;writing-mode:lr-tb;direction:ltr;text-orientation:mixed;dominant-baseline:auto;baseline-shift:baseline;text-anchor:start;white-space:normal;shape-padding:0;shape-margin:0;inline-size:0;clip-rule:nonzero;display:inline;overflow:visible;visibility:visible;isolation:auto;mix-blend-mode:normal;color-interpolation:sRGB;color-interpolation-filters:linearRGB;solid-color:#000000;solid-opacity:1;vector-effect:none;fill:#00ff80;fill-opacity:1;fill-rule:evenodd;stroke:none;stroke-width:0.123309;stroke-linecap:round;stroke-linejoin:round;stroke-miterlimit:4;stroke-dasharray:none;stroke-dashoffset:0;stroke-opacity:1;paint-order:normal;color-rendering:auto;image-rendering:auto;shape-rendering:auto;text-rendering:auto;enable-background:accumulate;stop-color:#000000"
       d="m 233.22038,23.205098 c -0.065,0.186918 0.23692,0.398915 0.52288,0.367236 1.93852,-0.214578 2.5993,-0.447663 3.38653,-0.395841 1.31394,0.08652 1.89452,0.456128 2.48893,0.93998 0.59439,0.483863 1.1381,1.117448 2.1821,1.491657 2.03999,0.731179 4.09189,0.07204 4.51239,-1.195596 0.42033,-1.267154 -0.93271,-2.728565 -2.93411,-3.385387 -1.56132,-0.512454 -3.52386,-0.498034 -4.49951,-0.369934 -0.94478,0.124046 -1.54675,0.235357 -2.2128,0.414763 -0.58212,0.156809 -1.18975,0.456059 -1.82821,0.809241 -0.62991,0.348449 -1.12994,0.833919 -1.57414,1.256832 -0.0206,0.01969 -0.0355,0.04231 -0.0441,0.06704 z"
       id="path1514-6-9-1" />
    <path
       style="color:#000000;font-style:normal;font-variant:normal;font-weight:normal;font-stretch:normal;font-size:medium;line-height:normal;font-family:sans-serif;font-variant-ligatures:normal;font-variant-position:normal;font-variant-caps:normal;font-variant-numeric:normal;font-variant-alternates:normal;font-variant-east-asian:normal;font-feature-settings:normal;font-variation-settings:normal;text-indent:0;text-align:start;text-decoration:none;text-decoration-line:none;text-decoration-style:solid;text-decoration-color:#000000;letter-spacing:normal;word-spacing:normal;text-transform:none;writing-mode:lr-tb;direction:ltr;text-orientation:mixed;dominant-baseline:auto;baseline-shift:baseline;text-anchor:start;white-space:normal;shape-padding:0;shape-margin:0;inline-size:0;clip-rule:nonzero;display:inline;overflow:visible;visibility:visible;isolation:auto;mix-blend-mode:normal;color-interpolation:sRGB;color-interpolation-filters:linearRGB;solid-color:#000000;solid-opacity:1;vector-effect:none;fill:#000000;fill-opacity:1;fill-rule:nonzero;stroke:none;stroke-width:0.631919;stroke-linecap:butt;stroke-linejoin:miter;stroke-miterlimit:4;stroke-dasharray:none;stroke-dashoffset:0;stroke-opacity:1;color-rendering:auto;image-rendering:auto;shape-rendering:auto;text-rendering:auto;enable-background:accumulate;stop-color:#000000"
       d="M 232.38871,4.2676192 212.47082,25.611731 v 0 L 231.93934,3.9240165 Z"
       id="path1862-5" />
    <path
       style="color:#000000;font-style:normal;font-variant:normal;font-weight:normal;font-stretch:normal;font-size:medium;line-height:normal;font-family:sans-serif;font-variant-ligatures:normal;font-variant-position:normal;font-variant-caps:normal;font-variant-numeric:normal;font-variant-alternates:normal;font-variant-east-asian:normal;font-feature-settings:normal;font-variation-settings:normal;text-indent:0;text-align:start;text-decoration:none;text-decoration-line:none;text-decoration-style:solid;text-decoration-color:#000000;letter-spacing:normal;word-spacing:normal;text-transform:none;writing-mode:lr-tb;direction:ltr;text-orientation:mixed;dominant-baseline:auto;baseline-shift:baseline;text-anchor:start;white-space:normal;shape-padding:0;shape-margin:0;inline-size:0;clip-rule:nonzero;display:inline;overflow:visible;visibility:visible;isolation:auto;mix-blend-mode:normal;color-interpolation:sRGB;color-interpolation-filters:linearRGB;solid-color:#000000;solid-opacity:1;vector-effect:none;fill:#808080;fill-opacity:1;fill-rule:evenodd;stroke:none;stroke-width:0.123309;stroke-linecap:round;stroke-linejoin:round;stroke-miterlimit:4;stroke-dasharray:none;stroke-dashoffset:0;stroke-opacity:1;paint-order:normal;color-rendering:auto;image-rendering:auto;shape-rendering:auto;text-rendering:auto;enable-background:accumulate;stop-color:#000000"
       d="m 121.93864,69.807701 c 0.065,0.186918 -0.23692,0.398915 -0.52288,0.367236 -1.93852,-0.214578 -2.5993,-0.447663 -3.38653,-0.395841 -1.31394,0.08652 -1.89452,0.456128 -2.48893,0.93998 -0.59439,0.483863 -1.1381,1.117448 -2.1821,1.491657 -2.03999,0.731179 -4.09189,0.07204 -4.51239,-1.195596 -0.42033,-1.267154 0.93271,-2.728565 2.93411,-3.385387 1.56132,-0.512454 3.52386,-0.498034 4.49951,-0.369934 0.94478,0.124046 1.54675,0.235357 2.2128,0.414763 0.58212,0.156809 1.18975,0.456059 1.82821,0.809241 0.62991,0.348449 1.12994,0.833919 1.57414,1.256832 0.0206,0.01969 0.0355,0.04231 0.0441,0.06704 z"
       id="path1514-6-9-1-7" />
    <path
       style="color:#000000;font-style:normal;font-variant:normal;font-weight:normal;font-stretch:normal;font-size:medium;line-height:normal;font-family:sans-serif;font-variant-ligatures:normal;font-variant-position:normal;font-variant-caps:normal;font-variant-numeric:normal;font-variant-alternates:normal;font-variant-east-asian:normal;font-feature-settings:normal;font-variation-settings:normal;text-indent:0;text-align:start;text-decoration:none;text-decoration-line:none;text-decoration-style:solid;text-decoration-color:#000000;letter-spacing:normal;word-spacing:normal;text-transform:none;writing-mode:lr-tb;direction:ltr;text-orientation:mixed;dominant-baseline:auto;baseline-shift:baseline;text-anchor:start;white-space:normal;shape-padding:0;shape-margin:0;inline-size:0;clip-rule:nonzero;display:inline;overflow:visible;visibility:visible;isolation:auto;mix-blend-mode:normal;color-interpolation:sRGB;color-interpolation-filters:linearRGB;solid-color:#000000;solid-opacity:1;vector-effect:none;fill:#ff0080;fill-opacity:1;fill-rule:evenodd;stroke:none;stroke-width:0.209915;stroke-linecap:round;stroke-linejoin:round;stroke-miterlimit:4;stroke-dasharray:none;stroke-dashoffset:0;stroke-opacity:1;paint-order:normal;color-rendering:auto;image-rendering:auto;shape-rendering:auto;text-rendering:auto;enable-background:accumulate;stop-color:#000000"
       d="m 206.85237,121.2372 c 0.0579,2.23479 -0.1536,4.87666 -0.77735,6.66141 -0.62378,1.78474 -1.56535,3.53894 -1.56415,5.38034 0.002,3.6525 2.26136,6.22505 4.55681,5.8574 2.29539,-0.36767 4.32951,-2.9169 3.8998,-6.49974 -0.20803,-1.73421 -1.11454,-3.52527 -1.93862,-5.09893 -0.82406,-1.57372 -1.77778,-4.32863 -2.7034,-6.47737 -0.23512,-0.54581 -0.38452,-1.14145 -0.72392,-1.6293 -0.33154,-0.47656 -0.82423,-1.60195 -1.24636,-1.21644 -0.16737,0.15285 0.12761,0.82767 0.19512,1.24091 0.0971,0.59451 0.28648,1.17954 0.30207,1.78172 z"
       id="path1514-1-6-8-7" />
    <path
       style="color:#000000;font-style:normal;font-variant:normal;font-weight:normal;font-stretch:normal;font-size:medium;line-height:normal;font-family:sans-serif;font-variant-ligatures:normal;font-variant-position:normal;font-variant-caps:normal;font-variant-numeric:normal;font-variant-alternates:normal;font-variant-east-asian:normal;font-feature-settings:normal;font-variation-settings:normal;text-indent:0;text-align:start;text-decoration:none;text-decoration-line:none;text-decoration-style:solid;text-decoration-color:#000000;letter-spacing:normal;word-spacing:normal;text-transform:none;writing-mode:lr-tb;direction:ltr;text-orientation:mixed;dominant-baseline:auto;baseline-shift:baseline;text-anchor:start;white-space:normal;shape-padding:0;shape-margin:0;inline-size:0;clip-rule:nonzero;display:inline;overflow:visible;visibility:visible;opacity:1;isolation:auto;mix-blend-mode:normal;color-interpolation:sRGB;color-interpolation-filters:linearRGB;solid-color:#000000;solid-opacity:1;vector-effect:none;fill:#000000;fill-opacity:1;fill-rule:nonzero;stroke:none;stroke-linecap:butt;stroke-linejoin:miter;stroke-miterlimit:4;stroke-dasharray:none;stroke-dashoffset:0;stroke-opacity:1;color-rendering:auto;image-rendering:auto;shape-rendering:auto;text-rendering:auto;enable-background:accumulate;stop-color:#000000;stop-opacity:1"
       d="m 216.01172,78.521484 -0.75195,1.707032 c 12.37779,5.455358 21.438,11.426232 29.70169,22.492714 3.08279,4.12838 8.21567,11.21853 10.16549,15.98775 v 0 c -1.9998,-4.89147 -4.5171,-9.56952 -7.5,-13.93164 -7.83524,-11.458072 -18.91332,-20.657646 -31.61523,-26.255856 z"
       id="path2078" />
    <path
       style="color:#000000;font-style:normal;font-variant:normal;font-weight:normal;font-stretch:normal;font-size:medium;line-height:normal;font-family:sans-serif;font-variant-ligatures:normal;font-variant-position:normal;font-variant-caps:normal;font-variant-numeric:normal;font-variant-alternates:normal;font-variant-east-asian:normal;font-feature-settings:normal;font-variation-settings:normal;text-indent:0;text-align:start;text-decoration:none;text-decoration-line:none;text-decoration-style:solid;text-decoration-color:#000000;letter-spacing:normal;word-spacing:normal;text-transform:none;writing-mode:lr-tb;direction:ltr;text-orientation:mixed;dominant-baseline:auto;baseline-shift:baseline;text-anchor:start;white-space:normal;shape-padding:0;shape-margin:0;inline-size:0;clip-rule:nonzero;display:inline;overflow:visible;visibility:visible;isolation:auto;mix-blend-mode:normal;color-interpolation:sRGB;color-interpolation-filters:linearRGB;solid-color:#000000;solid-opacity:1;vector-effect:none;fill:#80ff00;fill-opacity:1;fill-rule:evenodd;stroke:none;stroke-width:0.0919493;stroke-linecap:round;stroke-linejoin:round;stroke-miterlimit:4;stroke-dasharray:none;stroke-dashoffset:0;stroke-opacity:1;paint-order:normal;color-rendering:auto;image-rendering:auto;shape-rendering:auto;text-rendering:auto;enable-background:accumulate;stop-color:#000000"
       d="m 229.41103,101.82524 c 0.0446,0.28594 0.17171,0.4944 0.26378,0.70536 0.63155,1.44923 0.74681,2.25606 0.82781,3.0281 0.081,0.77203 0.34679,1.39548 0.70255,2.06037 0.70568,1.31885 2.15555,1.7869 3.05364,1.18541 0.89807,-0.6014 1.0755,-2.15899 0.2029,-3.36544 -0.42235,-0.58398 -1.13981,-1.05584 -1.7913,-1.456 -0.65149,-0.4002 -1.3346,-0.6777 -2.35524,-1.86683 -0.14863,-0.1731 -0.288,-0.30734 -0.47409,-0.45822 -0.20494,-0.16624 -0.28145,-0.20587 -0.35522,-0.15959 -0.10764,0.0675 -0.10055,0.1617 -0.0748,0.32682 z"
       id="path1514-1-6-3-7-70" />
  </g>
  <g
     id="layer1"
     style="display:inline">
    <text
       xml:space="preserve"
       style="font-style:normal;font-variant:normal;font-weight:normal;font-stretch:normal;font-size:211.667px;line-height:1.25;font-family:'Segoe UI Symbol';-inkscape-font-specification:'Segoe UI Symbol';letter-spacing:0.264583px;display:inline;fill:#000000;fill-opacity:1;stroke:none;stroke-width:0.264583"
       x="276.44754"
       y="188.65652"
       id="text873"><tspan
         id="tspan871"
         x="276.44754"
         y="188.65652"
         style="font-style:normal;font-variant:normal;font-weight:normal;font-stretch:normal;font-size:211.667px;font-family:'Freestyle Script';-inkscape-font-specification:'Freestyle Script';stroke-width:0.264583"
         dx="0">ChemistryCupboard</tspan></text>
  </g>
</svg>
